<svg width="40px" height="20px" viewBox="0 0 331 319" fill="none" xmlns="http://www.w3.org/2000/svg">
<path d="M159.5 5H171.5C256.828 5 326 74.172 326 159.5C326 244.828 256.828 314 171.5 314H159.5C74.172 314 5 244.828 5 159.5C5 74.172 74.172 5 159.5 5Z" fill="white" stroke="white" stroke-width="10"/>
<mask id="path-2-outside-1_87_1224" maskUnits="userSpaceOnUse" x="52" y="84" width="225" height="145" fill="black">
<rect fill="white" x="52" y="84" width="225" height="145"/>
<path d="M147.749 226L137.949 187H90.1492L79.5492 225L53.9492 223L71.5492 174.4L98.3492 88.4L134.149 85.8L159.949 171.4L176.549 221.6L147.749 226ZM116.149 111.8H113.549L96.3492 165.8H131.949L116.149 111.8ZM197.665 185.2C208.998 196.533 220.332 202.2 231.665 202.2C237.532 202.2 242.198 200.867 245.665 198.2C249.265 195.4 251.065 191.867 251.065 187.6C251.065 183.2 248.932 179.533 244.665 176.6C240.398 173.533 235.198 170.867 229.065 168.6C223.065 166.333 217.065 163.8 211.065 161C205.065 158.067 199.932 153.933 195.665 148.6C191.398 143.267 189.265 136.8 189.265 129.2C189.265 117.2 194.265 106.867 204.265 98.2C214.265 89.4 226.132 85 239.865 85C246.132 85 252.198 85.6667 258.065 87C263.932 88.3333 269.598 90.2667 275.065 92.8L261.465 122C257.732 119.067 252.598 116.4 246.065 114C239.665 111.467 233.998 110.2 229.065 110.2C224.265 110.2 220.332 111.4 217.265 113.8C214.332 116.067 212.865 119.133 212.865 123C212.865 126.867 214.998 130.333 219.265 133.4C223.532 136.333 228.665 138.933 234.665 141.2C240.798 143.467 246.865 146 252.865 148.8C258.998 151.467 264.198 155.467 268.465 160.8C272.732 166.133 274.865 172.6 274.865 180.2C274.865 192.733 269.865 203.733 259.865 213.2C249.865 222.533 238.198 227.2 224.865 227.2C214.865 227.2 205.998 224.8 198.265 220C191.465 215.867 186.665 212.2 183.865 209L182.065 206.8L197.665 185.2Z"/>
</mask>
<path d="M147.749 226L137.949 187H90.1492L79.5492 225L53.9492 223L71.5492 174.4L98.3492 88.4L134.149 85.8L159.949 171.4L176.549 221.6L147.749 226ZM116.149 111.8H113.549L96.3492 165.8H131.949L116.149 111.8ZM197.665 185.2C208.998 196.533 220.332 202.2 231.665 202.2C237.532 202.2 242.198 200.867 245.665 198.2C249.265 195.4 251.065 191.867 251.065 187.6C251.065 183.2 248.932 179.533 244.665 176.6C240.398 173.533 235.198 170.867 229.065 168.6C223.065 166.333 217.065 163.8 211.065 161C205.065 158.067 199.932 153.933 195.665 148.6C191.398 143.267 189.265 136.8 189.265 129.2C189.265 117.2 194.265 106.867 204.265 98.2C214.265 89.4 226.132 85 239.865 85C246.132 85 252.198 85.6667 258.065 87C263.932 88.3333 269.598 90.2667 275.065 92.8L261.465 122C257.732 119.067 252.598 116.4 246.065 114C239.665 111.467 233.998 110.2 229.065 110.2C224.265 110.2 220.332 111.4 217.265 113.8C214.332 116.067 212.865 119.133 212.865 123C212.865 126.867 214.998 130.333 219.265 133.4C223.532 136.333 228.665 138.933 234.665 141.2C240.798 143.467 246.865 146 252.865 148.8C258.998 151.467 264.198 155.467 268.465 160.8C272.732 166.133 274.865 172.6 274.865 180.2C274.865 192.733 269.865 203.733 259.865 213.2C249.865 222.533 238.198 227.2 224.865 227.2C214.865 227.2 205.998 224.8 198.265 220C191.465 215.867 186.665 212.2 183.865 209L182.065 206.8L197.665 185.2Z" fill="black"/>
<path d="M147.749 226L146.779 226.244L147.001 227.126L147.9 226.989L147.749 226ZM137.949 187L138.919 186.756L138.729 186H137.949V187ZM90.1492 187V186H89.39L89.186 186.731L90.1492 187ZM79.5492 225L79.4713 225.997L80.2914 226.061L80.5124 225.269L79.5492 225ZM53.9492 223L53.009 222.659L52.5617 223.895L53.8713 223.997L53.9492 223ZM71.5492 174.4L72.4895 174.74L72.4972 174.719L72.5039 174.698L71.5492 174.4ZM98.3492 88.4L98.2768 87.4026L97.5972 87.452L97.3945 88.1025L98.3492 88.4ZM134.149 85.8L135.107 85.5114L134.876 84.7446L134.077 84.8026L134.149 85.8ZM159.949 171.4L158.992 171.689L158.996 171.701L159 171.714L159.949 171.4ZM176.549 221.6L176.7 222.589L177.87 222.41L177.499 221.286L176.549 221.6ZM116.149 111.8L117.109 111.519L116.899 110.8H116.149V111.8ZM113.549 111.8V110.8H112.818L112.596 111.496L113.549 111.8ZM96.3492 165.8L95.3964 165.497L94.9812 166.8H96.3492V165.8ZM131.949 165.8V166.8H133.284L132.909 165.519L131.949 165.8ZM148.719 225.756L138.919 186.756L136.979 187.244L146.779 226.244L148.719 225.756ZM137.949 186H90.1492V188H137.949V186ZM89.186 186.731L78.586 224.731L80.5124 225.269L91.1124 187.269L89.186 186.731ZM79.6271 224.003L54.0271 222.003L53.8713 223.997L79.4713 225.997L79.6271 224.003ZM54.8895 223.34L72.4895 174.74L70.609 174.059L53.009 222.659L54.8895 223.34ZM72.5039 174.698L99.3039 88.6975L97.3945 88.1025L70.5945 174.102L72.5039 174.698ZM98.4217 89.3974L134.222 86.7974L134.077 84.8026L98.2768 87.4026L98.4217 89.3974ZM133.192 86.0886L158.992 171.689L160.907 171.111L135.107 85.5114L133.192 86.0886ZM159 171.714L175.6 221.914L177.499 221.286L160.899 171.086L159 171.714ZM176.398 220.611L147.598 225.011L147.9 226.989L176.7 222.589L176.398 220.611ZM116.149 110.8H113.549V112.8H116.149V110.8ZM112.596 111.496L95.3964 165.497L97.3021 166.103L114.502 112.103L112.596 111.496ZM96.3492 166.8H131.949V164.8H96.3492V166.8ZM132.909 165.519L117.109 111.519L115.189 112.081L130.989 166.081L132.909 165.519ZM197.665 185.2L198.372 184.493L197.542 183.663L196.854 184.615L197.665 185.2ZM245.665 198.2L246.275 198.993L246.279 198.989L245.665 198.2ZM244.665 176.6L244.081 177.412L244.09 177.418L244.098 177.424L244.665 176.6ZM229.065 168.6L228.711 169.535L228.718 169.538L229.065 168.6ZM211.065 161L210.626 161.898L210.634 161.902L210.642 161.906L211.065 161ZM195.665 148.6L196.446 147.975L196.446 147.975L195.665 148.6ZM204.265 98.2L204.92 98.9557L204.925 98.9507L204.265 98.2ZM258.065 87L258.286 86.0249L258.286 86.0249L258.065 87ZM275.065 92.8L275.971 93.2222L276.394 92.314L275.485 91.8927L275.065 92.8ZM261.465 122L260.847 122.786L261.839 123.566L262.371 122.422L261.465 122ZM246.065 114L245.697 114.93L245.708 114.934L245.72 114.939L246.065 114ZM217.265 113.8L217.876 114.591L217.881 114.587L217.265 113.8ZM219.265 133.4L218.681 134.212L218.69 134.218L218.698 134.224L219.265 133.4ZM234.665 141.2L234.311 142.135L234.318 142.138L234.665 141.2ZM252.865 148.8L252.442 149.706L252.454 149.712L252.466 149.717L252.865 148.8ZM268.465 160.8L267.684 161.425L267.684 161.425L268.465 160.8ZM259.865 213.2L260.547 213.931L260.552 213.926L259.865 213.2ZM198.265 220L198.792 219.15L198.784 219.145L198.265 220ZM183.865 209L183.091 209.633L183.101 209.646L183.112 209.659L183.865 209ZM182.065 206.8L181.254 206.215L180.804 206.838L181.291 207.433L182.065 206.8ZM196.958 185.907C208.4 197.349 219.973 203.2 231.665 203.2V201.2C220.69 201.2 209.596 195.717 198.372 184.493L196.958 185.907ZM231.665 203.2C237.677 203.2 242.582 201.833 246.275 198.993L245.055 197.407C241.815 199.9 237.386 201.2 231.665 201.2V203.2ZM246.279 198.989C250.103 196.015 252.065 192.199 252.065 187.6H250.065C250.065 191.534 248.427 194.785 245.051 197.411L246.279 198.989ZM252.065 187.6C252.065 182.809 249.714 178.858 245.231 175.776L244.098 177.424C248.149 180.209 250.065 183.591 250.065 187.6H252.065ZM245.248 175.788C240.894 172.658 235.61 169.953 229.411 167.662L228.718 169.538C234.787 171.781 239.903 174.409 244.081 177.412L245.248 175.788ZM229.418 167.665C223.443 165.407 217.466 162.884 211.488 160.094L210.642 161.906C216.664 164.716 222.687 167.26 228.711 169.535L229.418 167.665ZM211.504 160.102C205.64 157.235 200.622 153.196 196.446 147.975L194.884 149.225C199.241 154.671 204.49 158.899 210.626 161.898L211.504 160.102ZM196.446 147.975C192.337 142.839 190.265 136.6 190.265 129.2H188.265C188.265 137 190.459 143.694 194.884 149.225L196.446 147.975ZM190.265 129.2C190.265 117.522 195.114 107.454 204.92 98.9557L203.61 97.4443C193.416 106.279 188.265 116.878 188.265 129.2H190.265ZM204.925 98.9507C214.737 90.3167 226.366 86 239.865 86V84C225.897 84 213.793 88.4832 203.604 97.4493L204.925 98.9507ZM239.865 86C246.06 86 252.052 86.659 257.843 87.9751L258.286 86.0249C252.344 84.6743 246.203 84 239.865 84V86ZM257.843 87.9751C263.641 89.2929 269.241 91.2035 274.644 93.7073L275.485 91.8927C269.955 89.3299 264.222 87.3738 258.286 86.0249L257.843 87.9751ZM274.158 92.3778L260.558 121.578L262.371 122.422L275.971 93.2222L274.158 92.3778ZM262.083 121.214C258.238 118.193 253 115.482 246.41 113.061L245.72 114.939C252.196 117.318 257.225 119.94 260.847 122.786L262.083 121.214ZM246.433 113.07C239.959 110.507 234.163 109.2 229.065 109.2V111.2C233.833 111.2 239.371 112.426 245.697 114.93L246.433 113.07ZM229.065 109.2C224.095 109.2 219.929 110.445 216.649 113.012L217.881 114.587C220.734 112.355 224.435 111.2 229.065 111.2V109.2ZM216.653 113.009C213.463 115.474 211.865 118.839 211.865 123H213.865C213.865 119.427 215.2 116.659 217.876 114.591L216.653 113.009ZM211.865 123C211.865 127.296 214.255 131.031 218.681 134.212L219.848 132.588C215.741 129.636 213.865 126.437 213.865 123H211.865ZM218.698 134.224C223.045 137.212 228.253 139.847 234.311 142.135L235.018 140.265C229.076 138.02 224.018 135.454 219.831 132.576L218.698 134.224ZM234.318 142.138C240.425 144.395 246.467 146.918 252.442 149.706L253.288 147.894C247.263 145.082 241.171 142.538 235.011 140.262L234.318 142.138ZM252.466 149.717C258.447 152.317 263.517 156.216 267.684 161.425L269.246 160.175C264.88 154.718 259.549 150.616 253.264 147.883L252.466 149.717ZM267.684 161.425C271.793 166.561 273.865 172.8 273.865 180.2H275.865C275.865 172.4 273.67 165.706 269.246 160.175L267.684 161.425ZM273.865 180.2C273.865 192.43 269 203.175 259.177 212.474L260.552 213.926C270.73 204.291 275.865 193.037 275.865 180.2H273.865ZM259.183 212.469C249.362 221.634 237.938 226.2 224.865 226.2V228.2C238.459 228.2 250.367 223.432 260.547 213.931L259.183 212.469ZM224.865 226.2C215.032 226.2 206.352 223.843 198.792 219.15L197.737 220.85C205.645 225.757 214.698 228.2 224.865 228.2V226.2ZM198.784 219.145C192.01 215.027 187.315 211.424 184.617 208.341L183.112 209.659C186.015 212.976 190.92 216.706 197.745 220.855L198.784 219.145ZM184.639 208.367L182.839 206.167L181.291 207.433L183.091 209.633L184.639 208.367ZM182.876 207.385L198.476 185.785L196.854 184.615L181.254 206.215L182.876 207.385Z" fill="white" mask="url(#path-2-outside-1_87_1224)"/>
</svg>
