<svg width="40px" height="20px" viewBox="0 0 429 309" fill="none" xmlns="http://www.w3.org/2000/svg">
<path d="M100 5H329C381.467 5 424 47.5329 424 100V209C424 261.467 381.467 304 329 304H100C47.533 304 5 261.467 5 209V100C5 47.533 47.533 5 100 5Z" fill="white" stroke="white" stroke-width="10"/>
<mask id="path-2-outside-1_81_354" maskUnits="userSpaceOnUse" x="101" y="79" width="225" height="145" fill="black">
<rect fill="white" x="101" y="79" width="225" height="145"/>
<path d="M196.749 221L186.949 182H139.149L128.549 220L102.949 218L120.549 169.4L147.349 83.4L183.149 80.8L208.949 166.4L225.549 216.6L196.749 221ZM165.149 106.8H162.549L145.349 160.8H180.949L165.149 106.8ZM246.665 180.2C257.998 191.533 269.332 197.2 280.665 197.2C286.532 197.2 291.198 195.867 294.665 193.2C298.265 190.4 300.065 186.867 300.065 182.6C300.065 178.2 297.932 174.533 293.665 171.6C289.398 168.533 284.198 165.867 278.065 163.6C272.065 161.333 266.065 158.8 260.065 156C254.065 153.067 248.932 148.933 244.665 143.6C240.398 138.267 238.265 131.8 238.265 124.2C238.265 112.2 243.265 101.867 253.265 93.2C263.265 84.4 275.132 80 288.865 80C295.132 80 301.198 80.6667 307.065 82C312.932 83.3333 318.598 85.2667 324.065 87.8L310.465 117C306.732 114.067 301.598 111.4 295.065 109C288.665 106.467 282.998 105.2 278.065 105.2C273.265 105.2 269.332 106.4 266.265 108.8C263.332 111.067 261.865 114.133 261.865 118C261.865 121.867 263.998 125.333 268.265 128.4C272.532 131.333 277.665 133.933 283.665 136.2C289.798 138.467 295.865 141 301.865 143.8C307.998 146.467 313.198 150.467 317.465 155.8C321.732 161.133 323.865 167.6 323.865 175.2C323.865 187.733 318.865 198.733 308.865 208.2C298.865 217.533 287.198 222.2 273.865 222.2C263.865 222.2 254.998 219.8 247.265 215C240.465 210.867 235.665 207.2 232.865 204L231.065 201.8L246.665 180.2Z"/>
</mask>
<path d="M196.749 221L186.949 182H139.149L128.549 220L102.949 218L120.549 169.4L147.349 83.4L183.149 80.8L208.949 166.4L225.549 216.6L196.749 221ZM165.149 106.8H162.549L145.349 160.8H180.949L165.149 106.8ZM246.665 180.2C257.998 191.533 269.332 197.2 280.665 197.2C286.532 197.2 291.198 195.867 294.665 193.2C298.265 190.4 300.065 186.867 300.065 182.6C300.065 178.2 297.932 174.533 293.665 171.6C289.398 168.533 284.198 165.867 278.065 163.6C272.065 161.333 266.065 158.8 260.065 156C254.065 153.067 248.932 148.933 244.665 143.6C240.398 138.267 238.265 131.8 238.265 124.2C238.265 112.2 243.265 101.867 253.265 93.2C263.265 84.4 275.132 80 288.865 80C295.132 80 301.198 80.6667 307.065 82C312.932 83.3333 318.598 85.2667 324.065 87.8L310.465 117C306.732 114.067 301.598 111.4 295.065 109C288.665 106.467 282.998 105.2 278.065 105.2C273.265 105.2 269.332 106.4 266.265 108.8C263.332 111.067 261.865 114.133 261.865 118C261.865 121.867 263.998 125.333 268.265 128.4C272.532 131.333 277.665 133.933 283.665 136.2C289.798 138.467 295.865 141 301.865 143.8C307.998 146.467 313.198 150.467 317.465 155.8C321.732 161.133 323.865 167.6 323.865 175.2C323.865 187.733 318.865 198.733 308.865 208.2C298.865 217.533 287.198 222.2 273.865 222.2C263.865 222.2 254.998 219.8 247.265 215C240.465 210.867 235.665 207.2 232.865 204L231.065 201.8L246.665 180.2Z" fill="black"/>
<path d="M196.749 221L195.779 221.244L196.001 222.126L196.9 221.989L196.749 221ZM186.949 182L187.919 181.756L187.729 181H186.949V182ZM139.149 182V181H138.39L138.186 181.731L139.149 182ZM128.549 220L128.471 220.997L129.291 221.061L129.512 220.269L128.549 220ZM102.949 218L102.009 217.659L101.562 218.895L102.871 218.997L102.949 218ZM120.549 169.4L121.489 169.74L121.497 169.719L121.504 169.698L120.549 169.4ZM147.349 83.4L147.277 82.4026L146.597 82.452L146.395 83.1025L147.349 83.4ZM183.149 80.8L184.107 80.5114L183.876 79.7446L183.077 79.8026L183.149 80.8ZM208.949 166.4L207.992 166.689L207.996 166.701L208 166.714L208.949 166.4ZM225.549 216.6L225.7 217.589L226.87 217.41L226.499 216.286L225.549 216.6ZM165.149 106.8L166.109 106.519L165.899 105.8H165.149V106.8ZM162.549 106.8V105.8H161.818L161.596 106.496L162.549 106.8ZM145.349 160.8L144.396 160.497L143.981 161.8H145.349V160.8ZM180.949 160.8V161.8H182.284L181.909 160.519L180.949 160.8ZM197.719 220.756L187.919 181.756L185.979 182.244L195.779 221.244L197.719 220.756ZM186.949 181H139.149V183H186.949V181ZM138.186 181.731L127.586 219.731L129.512 220.269L140.112 182.269L138.186 181.731ZM128.627 219.003L103.027 217.003L102.871 218.997L128.471 220.997L128.627 219.003ZM103.889 218.34L121.489 169.74L119.609 169.059L102.009 217.659L103.889 218.34ZM121.504 169.698L148.304 83.6975L146.395 83.1025L119.595 169.102L121.504 169.698ZM147.422 84.3974L183.222 81.7974L183.077 79.8026L147.277 82.4026L147.422 84.3974ZM182.192 81.0886L207.992 166.689L209.907 166.111L184.107 80.5114L182.192 81.0886ZM208 166.714L224.6 216.914L226.499 216.286L209.899 166.086L208 166.714ZM225.398 215.611L196.598 220.011L196.9 221.989L225.7 217.589L225.398 215.611ZM165.149 105.8H162.549V107.8H165.149V105.8ZM161.596 106.496L144.396 160.497L146.302 161.103L163.502 107.103L161.596 106.496ZM145.349 161.8H180.949V159.8H145.349V161.8ZM181.909 160.519L166.109 106.519L164.189 107.081L179.989 161.081L181.909 160.519ZM246.665 180.2L247.372 179.493L246.542 178.663L245.854 179.615L246.665 180.2ZM294.665 193.2L295.275 193.993L295.279 193.989L294.665 193.2ZM293.665 171.6L293.081 172.412L293.09 172.418L293.098 172.424L293.665 171.6ZM278.065 163.6L277.711 164.535L277.718 164.538L278.065 163.6ZM260.065 156L259.626 156.898L259.634 156.902L259.642 156.906L260.065 156ZM244.665 143.6L245.446 142.975L245.446 142.975L244.665 143.6ZM253.265 93.2L253.92 93.9557L253.925 93.9507L253.265 93.2ZM307.065 82L307.286 81.0249L307.286 81.0249L307.065 82ZM324.065 87.8L324.971 88.2222L325.394 87.314L324.485 86.8927L324.065 87.8ZM310.465 117L309.847 117.786L310.839 118.566L311.371 117.422L310.465 117ZM295.065 109L294.697 109.93L294.708 109.934L294.72 109.939L295.065 109ZM266.265 108.8L266.876 109.591L266.881 109.587L266.265 108.8ZM268.265 128.4L267.681 129.212L267.69 129.218L267.698 129.224L268.265 128.4ZM283.665 136.2L283.311 137.135L283.318 137.138L283.665 136.2ZM301.865 143.8L301.442 144.706L301.454 144.712L301.466 144.717L301.865 143.8ZM317.465 155.8L316.684 156.425L316.684 156.425L317.465 155.8ZM308.865 208.2L309.547 208.931L309.552 208.926L308.865 208.2ZM247.265 215L247.792 214.15L247.784 214.145L247.265 215ZM232.865 204L232.091 204.633L232.101 204.646L232.112 204.659L232.865 204ZM231.065 201.8L230.254 201.215L229.804 201.838L230.291 202.433L231.065 201.8ZM245.958 180.907C257.4 192.349 268.973 198.2 280.665 198.2V196.2C269.69 196.2 258.596 190.717 247.372 179.493L245.958 180.907ZM280.665 198.2C286.677 198.2 291.582 196.833 295.275 193.993L294.055 192.407C290.815 194.9 286.386 196.2 280.665 196.2V198.2ZM295.279 193.989C299.103 191.015 301.065 187.199 301.065 182.6H299.065C299.065 186.534 297.427 189.785 294.051 192.411L295.279 193.989ZM301.065 182.6C301.065 177.809 298.714 173.858 294.231 170.776L293.098 172.424C297.149 175.209 299.065 178.591 299.065 182.6H301.065ZM294.248 170.788C289.894 167.658 284.61 164.953 278.411 162.662L277.718 164.538C283.787 166.781 288.903 169.409 293.081 172.412L294.248 170.788ZM278.418 162.665C272.443 160.407 266.466 157.884 260.488 155.094L259.642 156.906C265.664 159.716 271.687 162.26 277.711 164.535L278.418 162.665ZM260.504 155.102C254.64 152.235 249.622 148.196 245.446 142.975L243.884 144.225C248.241 149.671 253.49 153.899 259.626 156.898L260.504 155.102ZM245.446 142.975C241.337 137.839 239.265 131.6 239.265 124.2H237.265C237.265 132 239.459 138.694 243.884 144.225L245.446 142.975ZM239.265 124.2C239.265 112.522 244.114 102.454 253.92 93.9557L252.61 92.4443C242.416 101.279 237.265 111.878 237.265 124.2H239.265ZM253.925 93.9507C263.737 85.3167 275.366 81 288.865 81V79C274.897 79 262.793 83.4832 252.604 92.4493L253.925 93.9507ZM288.865 81C295.06 81 301.052 81.659 306.843 82.9751L307.286 81.0249C301.344 79.6743 295.203 79 288.865 79V81ZM306.843 82.9751C312.641 84.2929 318.241 86.2035 323.644 88.7073L324.485 86.8927C318.955 84.3299 313.222 82.3738 307.286 81.0249L306.843 82.9751ZM323.158 87.3778L309.558 116.578L311.371 117.422L324.971 88.2222L323.158 87.3778ZM311.083 116.214C307.238 113.193 302 110.482 295.41 108.061L294.72 109.939C301.196 112.318 306.225 114.94 309.847 117.786L311.083 116.214ZM295.433 108.07C288.959 105.507 283.163 104.2 278.065 104.2V106.2C282.833 106.2 288.371 107.426 294.697 109.93L295.433 108.07ZM278.065 104.2C273.095 104.2 268.929 105.445 265.649 108.012L266.881 109.587C269.734 107.355 273.435 106.2 278.065 106.2V104.2ZM265.653 108.009C262.463 110.474 260.865 113.839 260.865 118H262.865C262.865 114.427 264.2 111.659 266.876 109.591L265.653 108.009ZM260.865 118C260.865 122.296 263.255 126.031 267.681 129.212L268.848 127.588C264.741 124.636 262.865 121.437 262.865 118H260.865ZM267.698 129.224C272.045 132.212 277.253 134.847 283.311 137.135L284.018 135.265C278.076 133.02 273.018 130.454 268.831 127.576L267.698 129.224ZM283.318 137.138C289.425 139.395 295.467 141.918 301.442 144.706L302.288 142.894C296.263 140.082 290.171 137.538 284.011 135.262L283.318 137.138ZM301.466 144.717C307.447 147.317 312.517 151.216 316.684 156.425L318.246 155.175C313.88 149.718 308.549 145.616 302.264 142.883L301.466 144.717ZM316.684 156.425C320.793 161.561 322.865 167.8 322.865 175.2H324.865C324.865 167.4 322.67 160.706 318.246 155.175L316.684 156.425ZM322.865 175.2C322.865 187.43 318 198.175 308.177 207.474L309.552 208.926C319.73 199.291 324.865 188.037 324.865 175.2H322.865ZM308.183 207.469C298.362 216.634 286.938 221.2 273.865 221.2V223.2C287.459 223.2 299.367 218.432 309.547 208.931L308.183 207.469ZM273.865 221.2C264.032 221.2 255.352 218.843 247.792 214.15L246.737 215.85C254.645 220.757 263.698 223.2 273.865 223.2V221.2ZM247.784 214.145C241.01 210.027 236.315 206.424 233.617 203.341L232.112 204.659C235.015 207.976 239.92 211.706 246.745 215.855L247.784 214.145ZM233.639 203.367L231.839 201.167L230.291 202.433L232.091 204.633L233.639 203.367ZM231.876 202.385L247.476 180.785L245.854 179.615L230.254 201.215L231.876 202.385Z" fill="white" mask="url(#path-2-outside-1_81_354)"/>
</svg>
