<svg width="40px" height="20px" viewBox="0 0 429 309" fill="none" xmlns="http://www.w3.org/2000/svg">
<path d="M154.5 5H274.5C357.067 5 424 71.9334 424 154.5C424 237.067 357.067 304 274.5 304H154.5C71.9334 304 5 237.067 5 154.5C5 71.9334 71.9334 5 154.5 5Z" fill="white" stroke="white" stroke-width="10"/>
<mask id="path-2-outside-1_87_1111" maskUnits="userSpaceOnUse" x="100" y="78" width="233" height="146" fill="black">
<rect fill="white" x="100" y="78" width="233" height="146"/>
<path d="M153.764 222.2C138.964 222.2 126.497 216 116.364 203.6C106.231 191.2 101.164 176 101.164 158C101.164 136 107.231 117.467 119.364 102.4C131.631 87.3333 146.631 79.8 164.364 79.8C171.297 79.8 177.697 80.5333 183.564 82C189.564 83.3333 193.831 84.7333 196.364 86.2L199.964 88.4L186.364 116.2C183.297 113.533 178.964 111.067 173.364 108.8C167.764 106.4 162.697 105.2 158.164 105.2C148.964 105.2 141.564 109 135.964 116.6C130.497 124.2 127.764 135.067 127.764 149.2C127.764 163.2 130.631 174.733 136.364 183.8C142.097 192.733 149.897 197.2 159.764 197.2C166.164 197.2 171.964 195.2 177.164 191.2C182.364 187.2 186.031 181.867 188.164 175.2L204.764 184.8C200.364 196.533 193.631 205.733 184.564 212.4C175.497 218.933 165.231 222.2 153.764 222.2ZM302.12 221L292.32 182H244.52L233.92 220L208.32 218L225.92 169.4L252.72 83.4L288.52 80.8L314.32 166.4L330.92 216.6L302.12 221ZM270.52 106.8H267.92L250.72 160.8H286.32L270.52 106.8Z"/>
</mask>
<path d="M153.764 222.2C138.964 222.2 126.497 216 116.364 203.6C106.231 191.2 101.164 176 101.164 158C101.164 136 107.231 117.467 119.364 102.4C131.631 87.3333 146.631 79.8 164.364 79.8C171.297 79.8 177.697 80.5333 183.564 82C189.564 83.3333 193.831 84.7333 196.364 86.2L199.964 88.4L186.364 116.2C183.297 113.533 178.964 111.067 173.364 108.8C167.764 106.4 162.697 105.2 158.164 105.2C148.964 105.2 141.564 109 135.964 116.6C130.497 124.2 127.764 135.067 127.764 149.2C127.764 163.2 130.631 174.733 136.364 183.8C142.097 192.733 149.897 197.2 159.764 197.2C166.164 197.2 171.964 195.2 177.164 191.2C182.364 187.2 186.031 181.867 188.164 175.2L204.764 184.8C200.364 196.533 193.631 205.733 184.564 212.4C175.497 218.933 165.231 222.2 153.764 222.2ZM302.12 221L292.32 182H244.52L233.92 220L208.32 218L225.92 169.4L252.72 83.4L288.52 80.8L314.32 166.4L330.92 216.6L302.12 221ZM270.52 106.8H267.92L250.72 160.8H286.32L270.52 106.8Z" fill="black"/>
<path d="M116.364 203.6L115.59 204.233L115.59 204.233L116.364 203.6ZM119.364 102.4L118.589 101.769L118.585 101.773L119.364 102.4ZM183.564 82L183.322 82.9701L183.334 82.9733L183.347 82.9762L183.564 82ZM196.364 86.2L196.886 85.3467L196.875 85.3405L196.865 85.3346L196.364 86.2ZM199.964 88.4L200.862 88.8394L201.262 88.0215L200.486 87.5467L199.964 88.4ZM186.364 116.2L185.708 116.955L186.69 117.809L187.262 116.639L186.364 116.2ZM173.364 108.8L172.97 109.719L172.979 109.723L172.989 109.727L173.364 108.8ZM135.964 116.6L135.159 116.007L135.152 116.016L135.964 116.6ZM136.364 183.8L135.519 184.334L135.522 184.34L136.364 183.8ZM177.164 191.2L177.774 191.993L177.164 191.2ZM188.164 175.2L188.665 174.334L187.59 173.713L187.212 174.895L188.164 175.2ZM204.764 184.8L205.7 185.151L205.998 184.358L205.265 183.934L204.764 184.8ZM184.564 212.4L185.149 213.211L185.156 213.206L184.564 212.4ZM153.764 221.2C139.291 221.2 127.1 215.157 117.138 202.967L115.59 204.233C125.895 216.843 138.637 223.2 153.764 223.2V221.2ZM117.138 202.967C107.169 190.768 102.164 175.8 102.164 158H100.164C100.164 176.2 105.292 191.632 115.59 204.233L117.138 202.967ZM102.164 158C102.164 136.195 108.172 117.892 120.143 103.027L118.585 101.773C106.289 117.041 100.164 135.805 100.164 158H102.164ZM120.14 103.031C132.237 88.1726 146.963 80.8 164.364 80.8V78.8C146.299 78.8 131.024 86.4941 118.589 101.769L120.14 103.031ZM164.364 80.8C171.227 80.8 177.545 81.5259 183.322 82.9701L183.807 81.0298C177.85 79.5407 171.367 78.8 164.364 78.8V80.8ZM183.347 82.9762C189.332 84.3062 193.471 85.6804 195.863 87.0654L196.865 85.3346C194.191 83.7863 189.796 82.3605 183.781 81.0238L183.347 82.9762ZM195.843 87.0533L199.443 89.2533L200.486 87.5467L196.886 85.3467L195.843 87.0533ZM199.066 87.9605L185.466 115.761L187.262 116.639L200.862 88.8394L199.066 87.9605ZM187.02 115.445C183.84 112.68 179.397 110.163 173.739 107.873L172.989 109.727C178.531 111.97 182.755 114.387 185.708 116.955L187.02 115.445ZM173.758 107.881C168.074 105.445 162.871 104.2 158.164 104.2V106.2C162.524 106.2 167.454 107.355 172.97 109.719L173.758 107.881ZM158.164 104.2C148.637 104.2 140.942 108.159 135.159 116.007L136.769 117.193C142.186 109.841 149.291 106.2 158.164 106.2V104.2ZM135.152 116.016C129.515 123.853 126.764 134.958 126.764 149.2H128.764C128.764 135.175 131.48 124.547 136.776 117.184L135.152 116.016ZM126.764 149.2C126.764 163.333 129.658 175.066 135.519 184.334L137.209 183.266C131.604 174.401 128.764 163.067 128.764 149.2H126.764ZM135.522 184.34C141.423 193.534 149.527 198.2 159.764 198.2V196.2C150.268 196.2 142.772 191.933 137.206 183.26L135.522 184.34ZM159.764 198.2C166.391 198.2 172.404 196.123 177.774 191.993L176.554 190.407C171.524 194.277 165.938 196.2 159.764 196.2V198.2ZM177.774 191.993C183.146 187.86 186.926 182.351 189.116 175.505L187.212 174.895C185.136 181.382 181.582 186.54 176.554 190.407L177.774 191.993ZM187.663 176.066L204.263 185.666L205.265 183.934L188.665 174.334L187.663 176.066ZM203.828 184.449C199.488 196.022 192.865 205.055 183.972 211.594L185.156 213.206C194.397 206.411 201.24 197.045 205.7 185.151L203.828 184.449ZM183.979 211.589C175.088 217.996 165.027 221.2 153.764 221.2V223.2C165.435 223.2 175.907 219.871 185.149 213.211L183.979 211.589ZM302.12 221L301.15 221.244L301.372 222.126L302.271 221.989L302.12 221ZM292.32 182L293.29 181.756L293.1 181H292.32V182ZM244.52 182V181H243.761L243.557 181.731L244.52 182ZM233.92 220L233.842 220.997L234.663 221.061L234.884 220.269L233.92 220ZM208.32 218L207.38 217.659L206.933 218.895L208.242 218.997L208.32 218ZM225.92 169.4L226.861 169.74L226.868 169.719L226.875 169.698L225.92 169.4ZM252.72 83.4L252.648 82.4026L251.968 82.452L251.766 83.1025L252.72 83.4ZM288.52 80.8L289.478 80.5114L289.247 79.7446L288.448 79.8026L288.52 80.8ZM314.32 166.4L313.363 166.689L313.367 166.701L313.371 166.714L314.32 166.4ZM330.92 216.6L331.071 217.589L332.241 217.41L331.87 216.286L330.92 216.6ZM270.52 106.8L271.48 106.519L271.27 105.8H270.52V106.8ZM267.92 106.8V105.8H267.189L266.967 106.496L267.92 106.8ZM250.72 160.8L249.767 160.497L249.352 161.8H250.72V160.8ZM286.32 160.8V161.8H287.655L287.28 160.519L286.32 160.8ZM303.09 220.756L293.29 181.756L291.35 182.244L301.15 221.244L303.09 220.756ZM292.32 181H244.52V183H292.32V181ZM243.557 181.731L232.957 219.731L234.884 220.269L245.484 182.269L243.557 181.731ZM233.998 219.003L208.398 217.003L208.242 218.997L233.842 220.997L233.998 219.003ZM209.261 218.34L226.861 169.74L224.98 169.059L207.38 217.659L209.261 218.34ZM226.875 169.698L253.675 83.6975L251.766 83.1025L224.966 169.102L226.875 169.698ZM252.793 84.3974L288.593 81.7974L288.448 79.8026L252.648 82.4026L252.793 84.3974ZM287.563 81.0886L313.363 166.689L315.278 166.111L289.478 80.5114L287.563 81.0886ZM313.371 166.714L329.971 216.914L331.87 216.286L315.27 166.086L313.371 166.714ZM330.769 215.611L301.969 220.011L302.271 221.989L331.071 217.589L330.769 215.611ZM270.52 105.8H267.92V107.8H270.52V105.8ZM266.967 106.496L249.767 160.497L251.673 161.103L268.873 107.103L266.967 106.496ZM250.72 161.8H286.32V159.8H250.72V161.8ZM287.28 160.519L271.48 106.519L269.561 107.081L285.361 161.081L287.28 160.519Z" fill="white" mask="url(#path-2-outside-1_87_1111)"/>
</svg>
