<svg width="40px" height="20px" viewBox="0 0 331 319" fill="none" xmlns="http://www.w3.org/2000/svg">
<path d="M159.5 5H171.5C256.828 5 326 74.172 326 159.5C326 244.828 256.828 314 171.5 314H159.5C74.172 314 5 244.828 5 159.5C5 74.172 74.172 5 159.5 5Z" fill="white" stroke="white" stroke-width="10"/>
<mask id="path-2-outside-1_87_1233" maskUnits="userSpaceOnUse" x="51" y="83" width="233" height="146" fill="black">
<rect fill="white" x="51" y="83" width="233" height="146"/>
<path d="M104.764 227.2C89.9641 227.2 77.4974 221 67.3641 208.6C57.2307 196.2 52.1641 181 52.1641 163C52.1641 141 58.2307 122.467 70.3641 107.4C82.6307 92.3333 97.6307 84.8 115.364 84.8C122.297 84.8 128.697 85.5333 134.564 87C140.564 88.3333 144.831 89.7333 147.364 91.2L150.964 93.4L137.364 121.2C134.297 118.533 129.964 116.067 124.364 113.8C118.764 111.4 113.697 110.2 109.164 110.2C99.9641 110.2 92.5641 114 86.9641 121.6C81.4974 129.2 78.7641 140.067 78.7641 154.2C78.7641 168.2 81.6307 179.733 87.3641 188.8C93.0974 197.733 100.897 202.2 110.764 202.2C117.164 202.2 122.964 200.2 128.164 196.2C133.364 192.2 137.031 186.867 139.164 180.2L155.764 189.8C151.364 201.533 144.631 210.733 135.564 217.4C126.497 223.933 116.231 227.2 104.764 227.2ZM253.12 226L243.32 187H195.52L184.92 225L159.32 223L176.92 174.4L203.72 88.4L239.52 85.8L265.32 171.4L281.92 221.6L253.12 226ZM221.52 111.8H218.92L201.72 165.8H237.32L221.52 111.8Z"/>
</mask>
<path d="M104.764 227.2C89.9641 227.2 77.4974 221 67.3641 208.6C57.2307 196.2 52.1641 181 52.1641 163C52.1641 141 58.2307 122.467 70.3641 107.4C82.6307 92.3333 97.6307 84.8 115.364 84.8C122.297 84.8 128.697 85.5333 134.564 87C140.564 88.3333 144.831 89.7333 147.364 91.2L150.964 93.4L137.364 121.2C134.297 118.533 129.964 116.067 124.364 113.8C118.764 111.4 113.697 110.2 109.164 110.2C99.9641 110.2 92.5641 114 86.9641 121.6C81.4974 129.2 78.7641 140.067 78.7641 154.2C78.7641 168.2 81.6307 179.733 87.3641 188.8C93.0974 197.733 100.897 202.2 110.764 202.2C117.164 202.2 122.964 200.2 128.164 196.2C133.364 192.2 137.031 186.867 139.164 180.2L155.764 189.8C151.364 201.533 144.631 210.733 135.564 217.4C126.497 223.933 116.231 227.2 104.764 227.2ZM253.12 226L243.32 187H195.52L184.92 225L159.32 223L176.92 174.4L203.72 88.4L239.52 85.8L265.32 171.4L281.92 221.6L253.12 226ZM221.52 111.8H218.92L201.72 165.8H237.32L221.52 111.8Z" fill="black"/>
<path d="M67.3641 208.6L66.5897 209.233L66.5897 209.233L67.3641 208.6ZM70.3641 107.4L69.5886 106.769L69.5852 106.773L70.3641 107.4ZM134.564 87L134.322 87.9701L134.334 87.9733L134.347 87.9762L134.564 87ZM147.364 91.2L147.886 90.3467L147.875 90.3405L147.865 90.3346L147.364 91.2ZM150.964 93.4L151.862 93.8394L152.262 93.0215L151.486 92.5467L150.964 93.4ZM137.364 121.2L136.708 121.955L137.69 122.809L138.262 121.639L137.364 121.2ZM124.364 113.8L123.97 114.719L123.979 114.723L123.989 114.727L124.364 113.8ZM86.9641 121.6L86.159 121.007L86.1523 121.016L86.9641 121.6ZM87.3641 188.8L86.5189 189.334L86.5225 189.34L87.3641 188.8ZM128.164 196.2L128.774 196.993L128.164 196.2ZM139.164 180.2L139.665 179.334L138.59 178.713L138.212 179.895L139.164 180.2ZM155.764 189.8L156.7 190.151L156.998 189.358L156.265 188.934L155.764 189.8ZM135.564 217.4L136.149 218.211L136.156 218.206L135.564 217.4ZM104.764 226.2C90.2912 226.2 78.0996 220.157 68.1384 207.967L66.5897 209.233C76.8952 221.843 89.6369 228.2 104.764 228.2V226.2ZM68.1384 207.967C58.1691 195.768 53.1641 180.8 53.1641 163H51.1641C51.1641 181.2 56.2924 196.632 66.5897 209.233L68.1384 207.967ZM53.1641 163C53.1641 141.195 59.1721 122.892 71.1429 108.027L69.5852 106.773C57.2893 122.041 51.1641 140.805 51.1641 163H53.1641ZM71.1395 108.031C83.237 93.1726 97.9628 85.8 115.364 85.8V83.8C97.2987 83.8 82.0245 91.4941 69.5886 106.769L71.1395 108.031ZM115.364 85.8C122.227 85.8 128.545 86.5259 134.322 87.9701L134.807 86.0298C128.85 84.5407 122.367 83.8 115.364 83.8V85.8ZM134.347 87.9762C140.332 89.3062 144.471 90.6804 146.863 92.0654L147.865 90.3346C145.191 88.7863 140.796 87.3605 134.781 86.0238L134.347 87.9762ZM146.843 92.0533L150.443 94.2533L151.486 92.5467L147.886 90.3467L146.843 92.0533ZM150.066 92.9605L136.466 120.761L138.262 121.639L151.862 93.8394L150.066 92.9605ZM138.02 120.445C134.84 117.68 130.397 115.163 124.739 112.873L123.989 114.727C129.531 116.97 133.755 119.387 136.708 121.955L138.02 120.445ZM124.758 112.881C119.074 110.445 113.871 109.2 109.164 109.2V111.2C113.524 111.2 118.454 112.355 123.97 114.719L124.758 112.881ZM109.164 109.2C99.6367 109.2 91.9417 113.159 86.159 121.007L87.7691 122.193C93.1864 114.841 100.291 111.2 109.164 111.2V109.2ZM86.1523 121.016C80.5152 128.853 77.7641 139.958 77.7641 154.2H79.7641C79.7641 140.175 82.4796 129.547 87.7759 122.184L86.1523 121.016ZM77.7641 154.2C77.7641 168.333 80.6579 180.066 86.5189 189.334L88.2093 188.266C82.6036 179.401 79.7641 168.067 79.7641 154.2H77.7641ZM86.5225 189.34C92.4231 198.534 100.527 203.2 110.764 203.2V201.2C101.268 201.2 93.7717 196.933 88.2057 188.26L86.5225 189.34ZM110.764 203.2C117.391 203.2 123.404 201.123 128.774 196.993L127.554 195.407C122.524 199.277 116.938 201.2 110.764 201.2V203.2ZM128.774 196.993C134.146 192.86 137.926 187.351 140.116 180.505L138.212 179.895C136.136 186.382 132.582 191.54 127.554 195.407L128.774 196.993ZM138.663 181.066L155.263 190.666L156.265 188.934L139.665 179.334L138.663 181.066ZM154.828 189.449C150.488 201.022 143.865 210.055 134.972 216.594L136.156 218.206C145.397 211.411 152.24 202.045 156.7 190.151L154.828 189.449ZM134.979 216.589C126.088 222.996 116.027 226.2 104.764 226.2V228.2C116.435 228.2 126.907 224.871 136.149 218.211L134.979 216.589ZM253.12 226L252.15 226.244L252.372 227.126L253.271 226.989L253.12 226ZM243.32 187L244.29 186.756L244.1 186H243.32V187ZM195.52 187V186H194.761L194.557 186.731L195.52 187ZM184.92 225L184.842 225.997L185.663 226.061L185.884 225.269L184.92 225ZM159.32 223L158.38 222.659L157.933 223.895L159.242 223.997L159.32 223ZM176.92 174.4L177.861 174.74L177.868 174.719L177.875 174.698L176.92 174.4ZM203.72 88.4L203.648 87.4026L202.968 87.452L202.766 88.1025L203.72 88.4ZM239.52 85.8L240.478 85.5114L240.247 84.7446L239.448 84.8026L239.52 85.8ZM265.32 171.4L264.363 171.689L264.367 171.701L264.371 171.714L265.32 171.4ZM281.92 221.6L282.071 222.589L283.241 222.41L282.87 221.286L281.92 221.6ZM221.52 111.8L222.48 111.519L222.27 110.8H221.52V111.8ZM218.92 111.8V110.8H218.189L217.967 111.496L218.92 111.8ZM201.72 165.8L200.767 165.497L200.352 166.8H201.72V165.8ZM237.32 165.8V166.8H238.655L238.28 165.519L237.32 165.8ZM254.09 225.756L244.29 186.756L242.35 187.244L252.15 226.244L254.09 225.756ZM243.32 186H195.52V188H243.32V186ZM194.557 186.731L183.957 224.731L185.884 225.269L196.484 187.269L194.557 186.731ZM184.998 224.003L159.398 222.003L159.242 223.997L184.842 225.997L184.998 224.003ZM160.261 223.34L177.861 174.74L175.98 174.059L158.38 222.659L160.261 223.34ZM177.875 174.698L204.675 88.6975L202.766 88.1025L175.966 174.102L177.875 174.698ZM203.793 89.3974L239.593 86.7974L239.448 84.8026L203.648 87.4026L203.793 89.3974ZM238.563 86.0886L264.363 171.689L266.278 171.111L240.478 85.5114L238.563 86.0886ZM264.371 171.714L280.971 221.914L282.87 221.286L266.27 171.086L264.371 171.714ZM281.769 220.611L252.969 225.011L253.271 226.989L282.071 222.589L281.769 220.611ZM221.52 110.8H218.92V112.8H221.52V110.8ZM217.967 111.496L200.767 165.497L202.673 166.103L219.873 112.103L217.967 111.496ZM201.72 166.8H237.32V164.8H201.72V166.8ZM238.28 165.519L222.48 111.519L220.561 112.081L236.361 166.081L238.28 165.519Z" fill="white" mask="url(#path-2-outside-1_87_1233)"/>
</svg>
