<svg width="40px" height="20px" viewBox="0 0 429 309" fill="none" xmlns="http://www.w3.org/2000/svg">
<path d="M154.5 5H274.5C357.067 5 424 71.9334 424 154.5C424 237.067 357.067 304 274.5 304H154.5C71.9334 304 5 237.067 5 154.5C5 71.9334 71.9334 5 154.5 5Z" fill="white" stroke="white" stroke-width="10"/>
<mask id="path-2-outside-1_87_1114" maskUnits="userSpaceOnUse" x="106" y="78" width="216" height="146" fill="black">
<rect fill="white" x="106" y="78" width="216" height="146"/>
<path d="M165.907 222.2C148.44 222.2 134.374 216.333 123.707 204.6C113.04 192.867 107.707 177.333 107.707 158C107.707 136 114.374 117.467 127.707 102.4C141.04 87.3333 157.44 79.8 176.907 79.8C184.64 79.8 191.774 80.5333 198.307 82C204.974 83.3333 209.707 84.7333 212.507 86.2L216.507 88.4L204.907 116.2C200.907 113.533 195.507 111.067 188.707 108.8C181.907 106.4 175.907 105.2 170.707 105.2C159.907 105.2 151.24 109 144.707 116.6C138.174 124.2 134.907 134.267 134.907 146.8C134.907 163.733 137.974 176.933 144.107 186.4C150.374 195.867 159.04 200.6 170.107 200.6C177.307 200.6 184.107 199.6 190.507 197.6V166.6H164.707L166.707 146.4H214.707L212.907 179L214.307 213.6C194.707 219.333 178.574 222.2 165.907 222.2ZM244.855 220L247.255 171.4L244.855 82H319.855L317.655 103.4H272.655L271.455 138.8H311.455L309.255 160H270.655L270.455 168L271.855 198.8H320.255L318.055 220H244.855Z"/>
</mask>
<path d="M165.907 222.2C148.44 222.2 134.374 216.333 123.707 204.6C113.04 192.867 107.707 177.333 107.707 158C107.707 136 114.374 117.467 127.707 102.4C141.04 87.3333 157.44 79.8 176.907 79.8C184.64 79.8 191.774 80.5333 198.307 82C204.974 83.3333 209.707 84.7333 212.507 86.2L216.507 88.4L204.907 116.2C200.907 113.533 195.507 111.067 188.707 108.8C181.907 106.4 175.907 105.2 170.707 105.2C159.907 105.2 151.24 109 144.707 116.6C138.174 124.2 134.907 134.267 134.907 146.8C134.907 163.733 137.974 176.933 144.107 186.4C150.374 195.867 159.04 200.6 170.107 200.6C177.307 200.6 184.107 199.6 190.507 197.6V166.6H164.707L166.707 146.4H214.707L212.907 179L214.307 213.6C194.707 219.333 178.574 222.2 165.907 222.2ZM244.855 220L247.255 171.4L244.855 82H319.855L317.655 103.4H272.655L271.455 138.8H311.455L309.255 160H270.655L270.455 168L271.855 198.8H320.255L318.055 220H244.855Z" fill="black"/>
<path d="M123.707 204.6L124.447 203.927L124.447 203.927L123.707 204.6ZM127.707 102.4L128.456 103.063L128.456 103.063L127.707 102.4ZM198.307 82L198.088 82.9757L198.099 82.9783L198.111 82.9806L198.307 82ZM212.507 86.2L212.989 85.3238L212.98 85.3189L212.971 85.3142L212.507 86.2ZM216.507 88.4L217.43 88.7851L217.776 87.9565L216.989 87.5238L216.507 88.4ZM204.907 116.2L204.352 117.032L205.362 117.705L205.83 116.585L204.907 116.2ZM188.707 108.8L188.374 109.743L188.382 109.746L188.391 109.749L188.707 108.8ZM144.707 116.6L143.949 115.948L143.949 115.948L144.707 116.6ZM144.107 186.4L143.268 186.944L143.273 186.952L144.107 186.4ZM190.507 197.6L190.805 198.554L191.507 198.335V197.6H190.507ZM190.507 166.6H191.507V165.6H190.507V166.6ZM164.707 166.6L163.712 166.501L163.603 167.6H164.707V166.6ZM166.707 146.4V145.4H165.801L165.712 146.301L166.707 146.4ZM214.707 146.4L215.706 146.455L215.764 145.4H214.707V146.4ZM212.907 179L211.909 178.945L211.906 178.993L211.908 179.04L212.907 179ZM214.307 213.6L214.588 214.56L215.338 214.34L215.306 213.56L214.307 213.6ZM165.907 221.2C148.69 221.2 134.904 215.43 124.447 203.927L122.967 205.273C133.844 217.237 148.191 223.2 165.907 223.2V221.2ZM124.447 203.927C113.983 192.416 108.707 177.142 108.707 158H106.707C106.707 177.525 112.098 193.317 122.967 205.273L124.447 203.927ZM108.707 158C108.707 136.219 115.3 117.929 128.456 103.063L126.958 101.737C113.447 117.004 106.707 135.781 106.707 158H108.707ZM128.456 103.063C141.607 88.2023 157.738 80.8 176.907 80.8V78.8C157.143 78.8 140.474 86.4643 126.958 101.737L128.456 103.063ZM176.907 80.8C184.578 80.8 191.637 81.5274 198.088 82.9757L198.526 81.0243C191.911 79.5392 184.703 78.8 176.907 78.8V80.8ZM198.111 82.9806C204.766 84.3116 209.378 85.6901 212.043 87.0858L212.971 85.3142C210.036 83.7766 205.181 82.3551 198.503 81.0194L198.111 82.9806ZM212.025 87.0762L216.025 89.2762L216.989 87.5238L212.989 85.3238L212.025 87.0762ZM215.584 88.0149L203.984 115.815L205.83 116.585L217.43 88.7851L215.584 88.0149ZM205.462 115.368C201.361 112.634 195.871 110.134 189.023 107.851L188.391 109.749C195.143 112 200.453 114.432 204.352 117.032L205.462 115.368ZM189.04 107.857C182.171 105.433 176.055 104.2 170.707 104.2V106.2C175.759 106.2 181.643 107.367 188.374 109.743L189.04 107.857ZM170.707 104.2C159.641 104.2 150.688 108.108 143.949 115.948L145.465 117.252C151.793 109.892 160.173 106.2 170.707 106.2V104.2ZM143.949 115.948C137.223 123.772 133.907 134.089 133.907 146.8H135.907C135.907 134.444 139.124 124.628 145.465 117.252L143.949 115.948ZM133.907 146.8C133.907 163.836 136.989 177.253 143.268 186.944L144.946 185.856C138.958 176.614 135.907 163.631 135.907 146.8H133.907ZM143.273 186.952C149.719 196.69 158.695 201.6 170.107 201.6V199.6C159.386 199.6 151.028 195.044 144.941 185.848L143.273 186.952ZM170.107 201.6C177.401 201.6 184.302 200.587 190.805 198.554L190.209 196.646C183.912 198.613 177.213 199.6 170.107 199.6V201.6ZM191.507 197.6V166.6H189.507V197.6H191.507ZM190.507 165.6H164.707V167.6H190.507V165.6ZM165.702 166.699L167.702 146.499L165.712 146.301L163.712 166.501L165.702 166.699ZM166.707 147.4H214.707V145.4H166.707V147.4ZM213.709 146.345L211.909 178.945L213.906 179.055L215.706 146.455L213.709 146.345ZM211.908 179.04L213.308 213.64L215.306 213.56L213.906 178.96L211.908 179.04ZM214.026 212.64C194.469 218.361 178.439 221.2 165.907 221.2V223.2C178.709 223.2 194.945 220.306 214.588 214.56L214.026 212.64ZM244.855 220L243.857 219.951L243.805 221H244.855V220ZM247.255 171.4L248.254 171.449L248.256 171.411L248.255 171.373L247.255 171.4ZM244.855 82V81H243.828L243.856 82.0268L244.855 82ZM319.855 82L320.85 82.1023L320.964 81H319.855V82ZM317.655 103.4V104.4H318.558L318.65 103.502L317.655 103.4ZM272.655 103.4V102.4H271.689L271.656 103.366L272.655 103.4ZM271.455 138.8L270.456 138.766L270.421 139.8H271.455V138.8ZM311.455 138.8L312.45 138.903L312.565 137.8H311.455V138.8ZM309.255 160V161H310.157L310.25 160.103L309.255 160ZM270.655 160V159H269.68L269.656 159.975L270.655 160ZM270.455 168L269.456 167.975L269.455 168.01L269.457 168.045L270.455 168ZM271.855 198.8L270.857 198.845L270.9 199.8H271.855V198.8ZM320.255 198.8L321.25 198.903L321.365 197.8H320.255V198.8ZM318.055 220V221H318.957L319.05 220.103L318.055 220ZM245.854 220.049L248.254 171.449L246.257 171.351L243.857 219.951L245.854 220.049ZM248.255 171.373L245.855 81.9732L243.856 82.0268L246.256 171.427L248.255 171.373ZM244.855 83H319.855V81H244.855V83ZM318.861 81.8977L316.661 103.298L318.65 103.502L320.85 82.1023L318.861 81.8977ZM317.655 102.4H272.655V104.4H317.655V102.4ZM271.656 103.366L270.456 138.766L272.455 138.834L273.655 103.434L271.656 103.366ZM271.455 139.8H311.455V137.8H271.455V139.8ZM310.461 138.697L308.261 159.897L310.25 160.103L312.45 138.903L310.461 138.697ZM309.255 159H270.655V161H309.255V159ZM269.656 159.975L269.456 167.975L271.455 168.025L271.655 160.025L269.656 159.975ZM269.457 168.045L270.857 198.845L272.854 198.755L271.454 167.955L269.457 168.045ZM271.855 199.8H320.255V197.8H271.855V199.8ZM319.261 198.697L317.061 219.897L319.05 220.103L321.25 198.903L319.261 198.697ZM318.055 219H244.855V221H318.055V219Z" fill="white" mask="url(#path-2-outside-1_87_1114)"/>
</svg>
