<svg width="40px" height="20px" viewBox="0 0 429 309" fill="none" xmlns="http://www.w3.org/2000/svg">
<path d="M154.5 5H274.5C357.067 5 424 71.9334 424 154.5C424 237.067 357.067 304 274.5 304H154.5C71.9334 304 5 237.067 5 154.5C5 71.9334 71.9334 5 154.5 5Z" fill="white" stroke="white" stroke-width="10"/>
<mask id="path-2-outside-1_87_1117" maskUnits="userSpaceOnUse" x="130" y="79" width="169" height="143" fill="black">
<rect fill="white" x="130" y="79" width="169" height="143"/>
<path d="M159.779 81L156.979 168L159.379 220H131.379L133.779 171.4L131.379 86L159.779 81ZM297.53 81.6L294.93 168L297.13 215.6L273.53 220.6L213.93 124.2V168L216.73 220H191.73L194.13 171.4L191.73 82.6L215.73 81.4L275.13 179.2L273.13 84.6L297.53 81.6Z"/>
</mask>
<path d="M159.779 81L156.979 168L159.379 220H131.379L133.779 171.4L131.379 86L159.779 81ZM297.53 81.6L294.93 168L297.13 215.6L273.53 220.6L213.93 124.2V168L216.73 220H191.73L194.13 171.4L191.73 82.6L215.73 81.4L275.13 179.2L273.13 84.6L297.53 81.6Z" fill="black"/>
<path d="M159.779 81L160.778 81.0322L160.818 79.8017L159.606 80.0151L159.779 81ZM156.979 168L155.979 167.968L155.978 168.007L155.98 168.046L156.979 168ZM159.379 220V221H160.426L160.378 219.954L159.379 220ZM131.379 220L130.38 219.951L130.328 221H131.379V220ZM133.779 171.4L134.778 171.449L134.78 171.411L134.779 171.372L133.779 171.4ZM131.379 86L131.206 85.0151L130.355 85.1649L130.379 86.0281L131.379 86ZM158.779 80.9678L155.979 167.968L157.978 168.032L160.778 81.0322L158.779 80.9678ZM155.98 168.046L158.38 220.046L160.378 219.954L157.978 167.954L155.98 168.046ZM159.379 219H131.379V221H159.379V219ZM132.378 220.049L134.778 171.449L132.78 171.351L130.38 219.951L132.378 220.049ZM134.779 171.372L132.379 85.9719L130.379 86.0281L132.779 171.428L134.779 171.372ZM131.552 86.9848L159.952 81.9848L159.606 80.0151L131.206 85.0151L131.552 86.9848ZM297.53 81.6L298.53 81.6301L298.565 80.4653L297.408 80.6075L297.53 81.6ZM294.93 168L293.931 167.97L293.93 168.008L293.932 168.046L294.93 168ZM297.13 215.6L297.338 216.578L298.169 216.402L298.129 215.554L297.13 215.6ZM273.53 220.6L272.68 221.126L273.05 221.724L273.738 221.578L273.53 220.6ZM213.93 124.2L214.781 123.674L212.93 120.681V124.2H213.93ZM213.93 168H212.93V168.027L212.932 168.054L213.93 168ZM216.73 220V221H217.786L217.729 219.946L216.73 220ZM191.73 220L190.732 219.951L190.68 221H191.73V220ZM194.13 171.4L195.129 171.449L195.131 171.411L195.13 171.373L194.13 171.4ZM191.73 82.6L191.681 81.6012L190.704 81.65L190.731 82.627L191.73 82.6ZM215.73 81.4L216.585 80.8809L216.276 80.3715L215.681 80.4012L215.73 81.4ZM275.13 179.2L274.276 179.719L276.209 182.902L276.13 179.179L275.13 179.2ZM273.13 84.6L273.008 83.6075L272.112 83.7177L272.131 84.6211L273.13 84.6ZM296.531 81.5699L293.931 167.97L295.93 168.03L298.53 81.6301L296.531 81.5699ZM293.932 168.046L296.132 215.646L298.129 215.554L295.929 167.954L293.932 168.046ZM296.923 214.622L273.323 219.622L273.738 221.578L297.338 216.578L296.923 214.622ZM274.381 220.074L214.781 123.674L213.08 124.726L272.68 221.126L274.381 220.074ZM212.93 124.2V168H214.93V124.2H212.93ZM212.932 168.054L215.732 220.054L217.729 219.946L214.929 167.946L212.932 168.054ZM216.73 219H191.73V221H216.73V219ZM192.729 220.049L195.129 171.449L193.132 171.351L190.732 219.951L192.729 220.049ZM195.13 171.373L192.73 82.573L190.731 82.627L193.131 171.427L195.13 171.373ZM191.78 83.5987L215.78 82.3987L215.681 80.4012L191.681 81.6012L191.78 83.5987ZM214.876 81.9191L274.276 179.719L275.985 178.681L216.585 80.8809L214.876 81.9191ZM276.13 179.179L274.13 84.5789L272.131 84.6211L274.131 179.221L276.13 179.179ZM273.253 85.5925L297.653 82.5925L297.408 80.6075L273.008 83.6075L273.253 85.5925Z" fill="white" mask="url(#path-2-outside-1_87_1117)"/>
</svg>
