<svg width="40px" height="20px" viewBox="0 0 429 309" fill="none" xmlns="http://www.w3.org/2000/svg">
<path d="M154.5 5H274.5C357.067 5 424 71.9334 424 154.5C424 237.067 357.067 304 274.5 304H154.5C71.9334 304 5 237.067 5 154.5C5 71.9334 71.9334 5 154.5 5Z" fill="white" stroke="white" stroke-width="10"/>
<mask id="path-2-outside-1_87_1126" maskUnits="userSpaceOnUse" x="85" y="79" width="266" height="145" fill="black">
<rect fill="white" x="85" y="79" width="266" height="145"/>
<path d="M147.68 157.6H149.68L178.88 81.6L206.48 82.4L207.28 168.4L211.08 220H184.08L185.08 168L182.88 115.4L158.88 181.6L134.28 182.8L111.88 115.4L110.08 168L111.48 220H86.6797L89.4797 171.4L90.6797 85.6L122.48 80.6L147.68 157.6ZM295.094 80C310.827 80 323.76 86 333.894 98C344.16 110 349.294 125.267 349.294 143.8C349.294 167.267 343.227 186.2 331.094 200.6C318.96 215 303.027 222.2 283.294 222.2C267.96 222.2 255.094 216.067 244.694 203.8C234.294 191.4 229.094 176.133 229.094 158C229.094 135.333 235.294 116.667 247.694 102C260.094 87.3333 275.894 80 295.094 80ZM322.094 155C322.094 121.267 311.027 104.4 288.894 104.4C278.76 104.4 270.76 108.2 264.894 115.8C259.16 123.267 256.294 134.533 256.294 149.6C256.294 164.533 259.36 176.867 265.494 186.6C271.76 196.2 279.96 201 290.094 201C300.36 201 308.227 196.933 313.694 188.8C319.294 180.533 322.094 169.267 322.094 155Z"/>
</mask>
<path d="M147.68 157.6H149.68L178.88 81.6L206.48 82.4L207.28 168.4L211.08 220H184.08L185.08 168L182.88 115.4L158.88 181.6L134.28 182.8L111.88 115.4L110.08 168L111.48 220H86.6797L89.4797 171.4L90.6797 85.6L122.48 80.6L147.68 157.6ZM295.094 80C310.827 80 323.76 86 333.894 98C344.16 110 349.294 125.267 349.294 143.8C349.294 167.267 343.227 186.2 331.094 200.6C318.96 215 303.027 222.2 283.294 222.2C267.96 222.2 255.094 216.067 244.694 203.8C234.294 191.4 229.094 176.133 229.094 158C229.094 135.333 235.294 116.667 247.694 102C260.094 87.3333 275.894 80 295.094 80ZM322.094 155C322.094 121.267 311.027 104.4 288.894 104.4C278.76 104.4 270.76 108.2 264.894 115.8C259.16 123.267 256.294 134.533 256.294 149.6C256.294 164.533 259.36 176.867 265.494 186.6C271.76 196.2 279.96 201 290.094 201C300.36 201 308.227 196.933 313.694 188.8C319.294 180.533 322.094 169.267 322.094 155Z" fill="black"/>
<path d="M147.68 157.6L146.729 157.911L146.955 158.6H147.68V157.6ZM149.68 157.6V158.6H150.367L150.613 157.959L149.68 157.6ZM178.88 81.6L178.909 80.6004L178.2 80.5799L177.946 81.2413L178.88 81.6ZM206.48 82.4L207.48 82.3907L207.471 81.4283L206.509 81.4004L206.48 82.4ZM207.28 168.4L206.28 168.409L206.28 168.441L206.282 168.473L207.28 168.4ZM211.08 220V221H212.156L212.077 219.927L211.08 220ZM184.08 220L183.08 219.981L183.06 221H184.08V220ZM185.08 168L186.08 168.019L186.08 167.989L186.079 167.958L185.08 168ZM182.88 115.4L183.879 115.358L181.94 115.059L182.88 115.4ZM158.88 181.6L158.928 182.599L159.593 182.566L159.82 181.941L158.88 181.6ZM134.28 182.8L133.331 183.115L133.57 183.836L134.328 183.799L134.28 182.8ZM111.88 115.4L112.829 115.085L110.88 115.366L111.88 115.4ZM110.08 168L109.08 167.966L109.079 167.996L109.08 168.027L110.08 168ZM111.48 220V221H112.507L112.479 219.973L111.48 220ZM86.6797 220L85.6813 219.942L85.6204 221H86.6797V220ZM89.4797 171.4L90.478 171.458L90.4793 171.436L90.4796 171.414L89.4797 171.4ZM90.6797 85.6L90.5244 84.6121L89.6916 84.7431L89.6798 85.586L90.6797 85.6ZM122.48 80.6L123.43 80.289L123.165 79.4799L122.324 79.6121L122.48 80.6ZM147.68 158.6H149.68V156.6H147.68V158.6ZM150.613 157.959L179.813 81.9586L177.946 81.2413L148.746 157.241L150.613 157.959ZM178.851 82.5996L206.451 83.3996L206.509 81.4004L178.909 80.6004L178.851 82.5996ZM205.48 82.4093L206.28 168.409L208.28 168.391L207.48 82.3907L205.48 82.4093ZM206.282 168.473L210.082 220.073L212.077 219.927L208.277 168.327L206.282 168.473ZM211.08 219H184.08V221H211.08V219ZM185.08 220.019L186.08 168.019L184.08 167.981L183.08 219.981L185.08 220.019ZM186.079 167.958L183.879 115.358L181.881 115.442L184.081 168.042L186.079 167.958ZM181.94 115.059L157.94 181.259L159.82 181.941L183.82 115.741L181.94 115.059ZM158.831 180.601L134.231 181.801L134.328 183.799L158.928 182.599L158.831 180.601ZM135.229 182.485L112.829 115.085L110.931 115.715L133.331 183.115L135.229 182.485ZM110.88 115.366L109.08 167.966L111.079 168.034L112.879 115.434L110.88 115.366ZM109.08 168.027L110.48 220.027L112.479 219.973L111.079 167.973L109.08 168.027ZM111.48 219H86.6797V221H111.48V219ZM87.678 220.058L90.478 171.458L88.4813 171.342L85.6813 219.942L87.678 220.058ZM90.4796 171.414L91.6796 85.614L89.6798 85.586L88.4798 171.386L90.4796 171.414ZM90.835 86.5879L122.635 81.5879L122.324 79.6121L90.5244 84.6121L90.835 86.5879ZM121.529 80.911L146.729 157.911L148.63 157.289L123.43 80.289L121.529 80.911ZM333.894 98L333.13 98.6452L333.134 98.6501L333.894 98ZM331.094 200.6L330.329 199.956L330.329 199.956L331.094 200.6ZM244.694 203.8L243.928 204.443L243.931 204.447L244.694 203.8ZM264.894 115.8L264.102 115.189L264.101 115.191L264.894 115.8ZM265.494 186.6L264.648 187.133L264.652 187.14L264.656 187.147L265.494 186.6ZM313.694 188.8L312.866 188.239L312.864 188.242L313.694 188.8ZM295.094 81C310.533 81 323.187 86.8706 333.13 98.6452L334.658 97.3548C324.334 85.1294 311.121 79 295.094 79V81ZM333.134 98.6501C343.219 110.438 348.294 125.461 348.294 143.8H350.294C350.294 125.072 345.101 109.562 334.654 97.3499L333.134 98.6501ZM348.294 143.8C348.294 167.091 342.276 185.777 330.329 199.956L331.858 201.244C344.178 186.623 350.294 167.443 350.294 143.8H348.294ZM330.329 199.956C318.396 214.118 302.748 221.2 283.294 221.2V223.2C303.306 223.2 319.525 215.882 331.858 201.244L330.329 199.956ZM283.294 221.2C268.27 221.2 255.677 215.208 245.457 203.153L243.931 204.447C254.51 216.925 267.651 223.2 283.294 223.2V221.2ZM245.46 203.157C235.229 190.959 230.094 175.928 230.094 158H228.094C228.094 176.338 233.358 191.841 243.928 204.443L245.46 203.157ZM230.094 158C230.094 135.525 236.237 117.1 248.457 102.646L246.93 101.354C234.351 116.233 228.094 135.142 228.094 158H230.094ZM248.457 102.646C260.667 88.2036 276.188 81 295.094 81V79C275.599 79 259.52 86.463 246.93 101.354L248.457 102.646ZM323.094 155C323.094 138.056 320.32 125.174 314.63 116.501C308.891 107.755 300.259 103.4 288.894 103.4V105.4C299.662 105.4 307.629 109.478 312.958 117.599C318.334 125.793 321.094 138.211 321.094 155H323.094ZM288.894 103.4C278.471 103.4 270.17 107.328 264.102 115.189L265.685 116.411C271.351 109.072 279.05 105.4 288.894 105.4V103.4ZM264.101 115.191C258.174 122.91 255.294 134.436 255.294 149.6H257.294C257.294 134.631 260.147 123.624 265.687 116.409L264.101 115.191ZM255.294 149.6C255.294 164.667 258.388 177.199 264.648 187.133L266.34 186.067C260.333 176.534 257.294 164.4 257.294 149.6H255.294ZM264.656 187.147C271.079 196.986 279.574 202 290.094 202V200C280.347 200 272.442 195.414 266.331 186.053L264.656 187.147ZM290.094 202C300.674 202 308.861 197.783 314.524 189.358L312.864 188.242C307.593 196.084 300.046 200 290.094 200V202ZM314.522 189.361C320.272 180.872 323.094 169.385 323.094 155H321.094C321.094 169.149 318.315 180.195 312.866 188.239L314.522 189.361Z" fill="white" mask="url(#path-2-outside-1_87_1126)"/>
</svg>
