<svg width="40px" height="20px" viewBox="0 0 429 309" fill="none" xmlns="http://www.w3.org/2000/svg">
<path d="M154.5 5H274.5C357.067 5 424 71.9334 424 154.5C424 237.067 357.067 304 274.5 304H154.5C71.9334 304 5 237.067 5 154.5C5 71.9334 71.9334 5 154.5 5Z" fill="white" stroke="white" stroke-width="10"/>
<mask id="path-2-outside-1_87_1129" maskUnits="userSpaceOnUse" x="112" y="79" width="215" height="145" fill="black">
<rect fill="white" x="112" y="79" width="215" height="145"/>
<path d="M156.908 82C169.708 82 179.908 85.6667 187.508 93C195.108 100.2 198.908 110.133 198.908 122.8C198.908 135.467 194.108 146.333 184.508 155.4C174.908 164.333 163.174 168.8 149.308 168.8H137.908L140.308 220H113.508L115.908 171.4L113.508 82H156.908ZM149.708 102.2H139.908L138.508 149.4H152.108C158.774 149.4 163.908 147.2 167.508 142.8C171.241 138.4 173.108 132.133 173.108 124C173.108 109.467 165.308 102.2 149.708 102.2ZM271.266 80C286.999 80 299.932 86 310.066 98C320.332 110 325.466 125.267 325.466 143.8C325.466 167.267 319.399 186.2 307.266 200.6C295.132 215 279.199 222.2 259.466 222.2C244.132 222.2 231.266 216.067 220.866 203.8C210.466 191.4 205.266 176.133 205.266 158C205.266 135.333 211.466 116.667 223.866 102C236.266 87.3333 252.066 80 271.266 80ZM298.266 155C298.266 121.267 287.199 104.4 265.066 104.4C254.932 104.4 246.932 108.2 241.066 115.8C235.332 123.267 232.466 134.533 232.466 149.6C232.466 164.533 235.532 176.867 241.666 186.6C247.932 196.2 256.132 201 266.266 201C276.532 201 284.399 196.933 289.866 188.8C295.466 180.533 298.266 169.267 298.266 155Z"/>
</mask>
<path d="M156.908 82C169.708 82 179.908 85.6667 187.508 93C195.108 100.2 198.908 110.133 198.908 122.8C198.908 135.467 194.108 146.333 184.508 155.4C174.908 164.333 163.174 168.8 149.308 168.8H137.908L140.308 220H113.508L115.908 171.4L113.508 82H156.908ZM149.708 102.2H139.908L138.508 149.4H152.108C158.774 149.4 163.908 147.2 167.508 142.8C171.241 138.4 173.108 132.133 173.108 124C173.108 109.467 165.308 102.2 149.708 102.2ZM271.266 80C286.999 80 299.932 86 310.066 98C320.332 110 325.466 125.267 325.466 143.8C325.466 167.267 319.399 186.2 307.266 200.6C295.132 215 279.199 222.2 259.466 222.2C244.132 222.2 231.266 216.067 220.866 203.8C210.466 191.4 205.266 176.133 205.266 158C205.266 135.333 211.466 116.667 223.866 102C236.266 87.3333 252.066 80 271.266 80ZM298.266 155C298.266 121.267 287.199 104.4 265.066 104.4C254.932 104.4 246.932 108.2 241.066 115.8C235.332 123.267 232.466 134.533 232.466 149.6C232.466 164.533 235.532 176.867 241.666 186.6C247.932 196.2 256.132 201 266.266 201C276.532 201 284.399 196.933 289.866 188.8C295.466 180.533 298.266 169.267 298.266 155Z" fill="black"/>
<path d="M187.508 93L186.813 93.7196L186.82 93.7259L187.508 93ZM184.508 155.4L185.189 156.132L185.194 156.127L184.508 155.4ZM137.908 168.8V167.8H136.86L136.909 168.847L137.908 168.8ZM140.308 220V221H141.356L141.307 219.953L140.308 220ZM113.508 220L112.509 219.951L112.457 221H113.508V220ZM115.908 171.4L116.907 171.449L116.908 171.411L116.907 171.373L115.908 171.4ZM113.508 82V81H112.481L112.508 82.0268L113.508 82ZM139.908 102.2V101.2H138.937L138.908 102.17L139.908 102.2ZM138.508 149.4L137.508 149.37L137.478 150.4H138.508V149.4ZM167.508 142.8L166.745 142.153L166.74 142.16L166.734 142.167L167.508 142.8ZM156.908 83C169.507 83 179.438 86.6029 186.813 93.7196L188.202 92.2804C180.378 84.7304 169.909 81 156.908 81V83ZM186.82 93.7259C194.18 100.698 197.908 110.346 197.908 122.8H199.908C199.908 109.921 196.036 99.7017 188.196 92.274L186.82 93.7259ZM197.908 122.8C197.908 135.179 193.231 145.786 183.821 154.673L185.194 156.127C194.985 146.88 199.908 135.755 199.908 122.8H197.908ZM183.827 154.668C174.423 163.418 162.938 167.8 149.308 167.8V169.8C163.411 169.8 175.393 165.248 185.189 156.132L183.827 154.668ZM149.308 167.8H137.908V169.8H149.308V167.8ZM136.909 168.847L139.309 220.047L141.307 219.953L138.907 168.753L136.909 168.847ZM140.308 219H113.508V221H140.308V219ZM114.507 220.049L116.907 171.449L114.909 171.351L112.509 219.951L114.507 220.049ZM116.907 171.373L114.507 81.9732L112.508 82.0268L114.908 171.427L116.907 171.373ZM113.508 83H156.908V81H113.508V83ZM149.708 101.2H139.908V103.2H149.708V101.2ZM138.908 102.17L137.508 149.37L139.507 149.43L140.907 102.23L138.908 102.17ZM138.508 150.4H152.108V148.4H138.508V150.4ZM152.108 150.4C159.017 150.4 164.458 148.107 168.282 143.433L166.734 142.167C163.358 146.293 158.532 148.4 152.108 148.4V150.4ZM168.27 143.447C172.209 138.805 174.108 132.274 174.108 124H172.108C172.108 131.992 170.273 137.995 166.745 142.153L168.27 143.447ZM174.108 124C174.108 116.56 172.108 110.802 167.939 106.918C163.784 103.047 157.645 101.2 149.708 101.2V103.2C157.371 103.2 162.931 104.986 166.576 108.382C170.208 111.765 172.108 116.906 172.108 124H174.108ZM310.066 98L309.302 98.6452L309.306 98.6501L310.066 98ZM307.266 200.6L306.501 199.956L306.501 199.956L307.266 200.6ZM220.866 203.8L220.099 204.443L220.103 204.447L220.866 203.8ZM241.066 115.8L240.274 115.189L240.272 115.191L241.066 115.8ZM241.666 186.6L240.82 187.133L240.824 187.14L240.828 187.147L241.666 186.6ZM289.866 188.8L289.038 188.239L289.036 188.242L289.866 188.8ZM271.266 81C286.705 81 299.359 86.8706 309.302 98.6452L310.83 97.3548C300.506 85.1294 287.293 79 271.266 79V81ZM309.306 98.6501C319.391 110.438 324.466 125.461 324.466 143.8H326.466C326.466 125.072 321.273 109.562 310.825 97.3499L309.306 98.6501ZM324.466 143.8C324.466 167.091 318.448 185.777 306.501 199.956L308.03 201.244C320.35 186.623 326.466 167.443 326.466 143.8H324.466ZM306.501 199.956C294.568 214.118 278.92 221.2 259.466 221.2V223.2C279.478 223.2 295.697 215.882 308.03 201.244L306.501 199.956ZM259.466 221.2C244.442 221.2 231.849 215.208 221.628 203.153L220.103 204.447C230.682 216.925 243.822 223.2 259.466 223.2V221.2ZM221.632 203.157C211.401 190.959 206.266 175.928 206.266 158H204.266C204.266 176.338 209.53 191.841 220.099 204.443L221.632 203.157ZM206.266 158C206.266 135.525 212.408 117.1 224.629 102.646L223.102 101.354C210.523 116.233 204.266 135.142 204.266 158H206.266ZM224.629 102.646C236.839 88.2036 252.36 81 271.266 81V79C251.771 79 235.692 86.463 223.102 101.354L224.629 102.646ZM299.266 155C299.266 138.056 296.492 125.174 290.802 116.501C285.063 107.755 276.43 103.4 265.066 103.4V105.4C275.834 105.4 283.801 109.478 289.13 117.599C294.506 125.793 297.266 138.211 297.266 155H299.266ZM265.066 103.4C254.642 103.4 246.342 107.328 240.274 115.189L241.857 116.411C247.523 109.072 255.222 105.4 265.066 105.4V103.4ZM240.272 115.191C234.346 122.91 231.466 134.436 231.466 149.6H233.466C233.466 134.631 236.319 123.624 241.859 116.409L240.272 115.191ZM231.466 149.6C231.466 164.667 234.56 177.199 240.82 187.133L242.512 186.067C236.505 176.534 233.466 164.4 233.466 149.6H231.466ZM240.828 187.147C247.251 196.986 255.746 202 266.266 202V200C256.519 200 248.614 195.414 242.503 186.053L240.828 187.147ZM266.266 202C276.846 202 285.033 197.783 290.696 189.358L289.036 188.242C283.765 196.084 276.218 200 266.266 200V202ZM290.694 189.361C296.444 180.872 299.266 169.385 299.266 155H297.266C297.266 169.149 294.487 180.195 289.038 188.239L290.694 189.361Z" fill="white" mask="url(#path-2-outside-1_87_1129)"/>
</svg>
