<svg width="40px" height="20px" viewBox="0 0 429 309" fill="none" xmlns="http://www.w3.org/2000/svg">
<path d="M154.5 5H274.5C357.067 5 424 71.9334 424 154.5C424 237.067 357.067 304 274.5 304H154.5C71.9334 304 5 237.067 5 154.5C5 71.9334 71.9334 5 154.5 5Z" fill="white" stroke="white" stroke-width="10"/>
<mask id="path-2-outside-1_87_1123" maskUnits="userSpaceOnUse" x="121" y="79" width="203" height="142" fill="black">
<rect fill="white" x="121" y="79" width="203" height="142"/>
<path d="M166.088 82C178.888 82 189.088 85.6667 196.688 93C204.288 100.2 208.088 110.133 208.088 122.8C208.088 135.467 203.288 146.333 193.688 155.4C184.088 164.333 172.354 168.8 158.488 168.8H147.088L149.488 220H122.688L125.088 171.4L122.688 82H166.088ZM158.888 102.2H149.088L147.688 149.4H161.288C167.954 149.4 173.088 147.2 176.688 142.8C180.421 138.4 182.288 132.133 182.288 124C182.288 109.467 174.488 102.2 158.888 102.2ZM265.045 141H267.445L282.245 113.8L297.245 80.8L321.645 84.4L303.245 117.8L277.245 168.6L279.445 220H251.445L253.445 172L228.245 120.8L209.045 85.8L237.245 80.8L250.245 111.2L265.045 141Z"/>
</mask>
<path d="M166.088 82C178.888 82 189.088 85.6667 196.688 93C204.288 100.2 208.088 110.133 208.088 122.8C208.088 135.467 203.288 146.333 193.688 155.4C184.088 164.333 172.354 168.8 158.488 168.8H147.088L149.488 220H122.688L125.088 171.4L122.688 82H166.088ZM158.888 102.2H149.088L147.688 149.4H161.288C167.954 149.4 173.088 147.2 176.688 142.8C180.421 138.4 182.288 132.133 182.288 124C182.288 109.467 174.488 102.2 158.888 102.2ZM265.045 141H267.445L282.245 113.8L297.245 80.8L321.645 84.4L303.245 117.8L277.245 168.6L279.445 220H251.445L253.445 172L228.245 120.8L209.045 85.8L237.245 80.8L250.245 111.2L265.045 141Z" fill="black"/>
<path d="M196.688 93L195.993 93.7196L196 93.7259L196.688 93ZM193.688 155.4L194.369 156.132L194.374 156.127L193.688 155.4ZM147.088 168.8V167.8H146.04L146.089 168.847L147.088 168.8ZM149.488 220V221H150.535L150.486 219.953L149.488 220ZM122.688 220L121.689 219.951L121.637 221H122.688V220ZM125.088 171.4L126.086 171.449L126.088 171.411L126.087 171.373L125.088 171.4ZM122.688 82V81H121.66L121.688 82.0268L122.688 82ZM149.088 102.2V101.2H148.117L148.088 102.17L149.088 102.2ZM147.688 149.4L146.688 149.37L146.657 150.4H147.688V149.4ZM176.688 142.8L175.925 142.153L175.919 142.16L175.914 142.167L176.688 142.8ZM166.088 83C178.687 83 188.618 86.6029 195.993 93.7196L197.382 92.2804C189.557 84.7304 179.088 81 166.088 81V83ZM196 93.7259C203.359 100.698 207.088 110.346 207.088 122.8H209.088C209.088 109.921 205.216 99.7017 197.375 92.274L196 93.7259ZM207.088 122.8C207.088 135.179 202.41 145.786 193.001 154.673L194.374 156.127C204.165 146.88 209.088 135.755 209.088 122.8H207.088ZM193.006 154.668C183.603 163.418 172.117 167.8 158.488 167.8V169.8C172.591 169.8 184.572 165.248 194.369 156.132L193.006 154.668ZM158.488 167.8H147.088V169.8H158.488V167.8ZM146.089 168.847L148.489 220.047L150.486 219.953L148.086 168.753L146.089 168.847ZM149.488 219H122.688V221H149.488V219ZM123.686 220.049L126.086 171.449L124.089 171.351L121.689 219.951L123.686 220.049ZM126.087 171.373L123.687 81.9732L121.688 82.0268L124.088 171.427L126.087 171.373ZM122.688 83H166.088V81H122.688V83ZM158.888 101.2H149.088V103.2H158.888V101.2ZM148.088 102.17L146.688 149.37L148.687 149.43L150.087 102.23L148.088 102.17ZM147.688 150.4H161.288V148.4H147.688V150.4ZM161.288 150.4C168.196 150.4 173.638 148.107 177.461 143.433L175.914 142.167C172.537 146.293 167.712 148.4 161.288 148.4V150.4ZM177.45 143.447C181.389 138.805 183.288 132.274 183.288 124H181.288C181.288 131.992 179.453 137.995 175.925 142.153L177.45 143.447ZM183.288 124C183.288 116.56 181.288 110.802 177.119 106.918C172.964 103.047 166.825 101.2 158.888 101.2V103.2C166.55 103.2 172.111 104.986 175.756 108.382C179.387 111.765 181.288 116.906 181.288 124H183.288ZM265.045 141L264.15 141.445L264.425 142H265.045V141ZM267.445 141V142H268.04L268.324 141.478L267.445 141ZM282.245 113.8L283.124 114.278L283.141 114.246L283.156 114.214L282.245 113.8ZM297.245 80.8L297.391 79.8107L296.646 79.7008L296.335 80.3862L297.245 80.8ZM321.645 84.4L322.521 84.8825L323.216 83.6209L321.791 83.4107L321.645 84.4ZM303.245 117.8L302.369 117.317L302.362 117.331L302.355 117.344L303.245 117.8ZM277.245 168.6L276.355 168.144L276.235 168.379L276.246 168.643L277.245 168.6ZM279.445 220V221H280.489L280.444 219.957L279.445 220ZM251.445 220L250.446 219.958L250.403 221H251.445V220ZM253.445 172L254.444 172.042L254.455 171.787L254.343 171.558L253.445 172ZM228.245 120.8L229.143 120.358L229.133 120.338L229.122 120.319L228.245 120.8ZM209.045 85.8L208.871 84.8154L207.498 85.0587L208.169 86.281L209.045 85.8ZM237.245 80.8L238.165 80.4068L237.853 79.6767L237.071 79.8153L237.245 80.8ZM250.245 111.2L249.326 111.593L249.337 111.619L249.35 111.645L250.245 111.2ZM265.045 142H267.445V140H265.045V142ZM268.324 141.478L283.124 114.278L281.367 113.322L266.567 140.522L268.324 141.478ZM283.156 114.214L298.156 81.2138L296.335 80.3862L281.335 113.386L283.156 114.214ZM297.099 81.7893L321.499 85.3893L321.791 83.4107L297.391 79.8107L297.099 81.7893ZM320.769 83.9175L302.369 117.317L304.121 118.283L322.521 84.8825L320.769 83.9175ZM302.355 117.344L276.355 168.144L278.135 169.056L304.136 118.256L302.355 117.344ZM276.246 168.643L278.446 220.043L280.444 219.957L278.244 168.557L276.246 168.643ZM279.445 219H251.445V221H279.445V219ZM252.444 220.042L254.444 172.042L252.446 171.958L250.446 219.958L252.444 220.042ZM254.343 171.558L229.143 120.358L227.348 121.242L252.548 172.442L254.343 171.558ZM229.122 120.319L209.922 85.319L208.169 86.281L227.369 121.281L229.122 120.319ZM209.22 86.7846L237.42 81.7846L237.071 79.8153L208.871 84.8154L209.22 86.7846ZM236.326 81.1932L249.326 111.593L251.165 110.807L238.165 80.4068L236.326 81.1932ZM249.35 111.645L264.15 141.445L265.941 140.555L251.141 110.755L249.35 111.645Z" fill="white" mask="url(#path-2-outside-1_87_1123)"/>
</svg>
