<svg width="40px" height="20px" viewBox="0 0 429 309" fill="none" xmlns="http://www.w3.org/2000/svg">
<path d="M154.5 5H274.5C357.067 5 424 71.9334 424 154.5C424 237.067 357.067 304 274.5 304H154.5C71.9334 304 5 237.067 5 154.5C5 71.9334 71.9334 5 154.5 5Z" fill="white" stroke="white" stroke-width="10"/>
<mask id="path-2-outside-1_87_1120" maskUnits="userSpaceOnUse" x="151" y="79" width="130" height="169" fill="black">
<rect fill="white" x="151" y="79" width="130" height="169"/>
<path d="M218.531 80C234.265 80 247.198 86 257.331 98C267.598 110 272.731 125.267 272.731 143.8C272.731 165.4 266.065 184.067 252.731 199.8L279.131 231.2L259.331 245.8L236.331 213.8C226.998 219.4 217.131 222.2 206.731 222.2C191.398 222.2 178.531 216.067 168.131 203.8C157.731 191.4 152.531 176.133 152.531 158C152.531 135.333 158.731 116.667 171.131 102C183.531 87.3333 199.331 80 218.531 80ZM245.531 155C245.531 121.267 234.465 104.4 212.331 104.4C202.198 104.4 194.198 108.2 188.331 115.8C182.598 123.267 179.731 134.533 179.731 149.6C179.731 164.533 182.798 176.867 188.931 186.6C195.198 196.2 203.731 201 214.531 201C218.531 201 222.265 200.2 225.731 198.6L201.931 165.2L215.731 155.6L239.731 184.2C243.598 176.067 245.531 166.333 245.531 155Z"/>
</mask>
<path d="M218.531 80C234.265 80 247.198 86 257.331 98C267.598 110 272.731 125.267 272.731 143.8C272.731 165.4 266.065 184.067 252.731 199.8L279.131 231.2L259.331 245.8L236.331 213.8C226.998 219.4 217.131 222.2 206.731 222.2C191.398 222.2 178.531 216.067 168.131 203.8C157.731 191.4 152.531 176.133 152.531 158C152.531 135.333 158.731 116.667 171.131 102C183.531 87.3333 199.331 80 218.531 80ZM245.531 155C245.531 121.267 234.465 104.4 212.331 104.4C202.198 104.4 194.198 108.2 188.331 115.8C182.598 123.267 179.731 134.533 179.731 149.6C179.731 164.533 182.798 176.867 188.931 186.6C195.198 196.2 203.731 201 214.531 201C218.531 201 222.265 200.2 225.731 198.6L201.931 165.2L215.731 155.6L239.731 184.2C243.598 176.067 245.531 166.333 245.531 155Z" fill="black"/>
<path d="M257.331 98L256.567 98.6452L256.571 98.6501L257.331 98ZM252.731 199.8L251.968 199.153L251.423 199.797L251.966 200.444L252.731 199.8ZM279.131 231.2L279.725 232.005L280.583 231.372L279.897 230.556L279.131 231.2ZM259.331 245.8L258.519 246.384L259.11 247.206L259.925 246.605L259.331 245.8ZM236.331 213.8L237.143 213.216L236.606 212.469L235.817 212.943L236.331 213.8ZM168.131 203.8L167.365 204.443L167.368 204.447L168.131 203.8ZM188.331 115.8L187.54 115.189L187.538 115.191L188.331 115.8ZM188.931 186.6L188.085 187.133L188.089 187.14L188.094 187.147L188.931 186.6ZM225.731 198.6L226.15 199.508L227.246 199.002L226.546 198.02L225.731 198.6ZM201.931 165.2L201.36 164.379L200.53 164.957L201.117 165.78L201.931 165.2ZM215.731 155.6L216.497 154.957L215.91 154.257L215.16 154.779L215.731 155.6ZM239.731 184.2L238.965 184.843L239.966 186.035L240.634 184.629L239.731 184.2ZM218.531 81C233.971 81 246.624 86.8706 256.567 98.6452L258.095 97.3548C247.772 85.1294 234.558 79 218.531 79V81ZM256.571 98.6501C266.657 110.438 271.731 125.461 271.731 143.8H273.731C273.731 125.072 268.539 109.562 258.091 97.3499L256.571 98.6501ZM271.731 143.8C271.731 165.175 265.141 183.61 251.968 199.153L253.494 200.447C266.988 184.523 273.731 165.625 273.731 143.8H271.731ZM251.966 200.444L278.366 231.844L279.897 230.556L253.497 199.156L251.966 200.444ZM278.538 230.395L258.738 244.995L259.925 246.605L279.725 232.005L278.538 230.395ZM260.143 245.216L237.143 213.216L235.519 214.384L258.519 246.384L260.143 245.216ZM235.817 212.943C226.631 218.454 216.941 221.2 206.731 221.2V223.2C217.321 223.2 227.365 220.346 236.846 214.657L235.817 212.943ZM206.731 221.2C191.708 221.2 179.115 215.208 168.894 203.153L167.368 204.447C177.948 216.925 191.088 223.2 206.731 223.2V221.2ZM168.897 203.157C158.667 190.959 153.531 175.928 153.531 158H151.531C151.531 176.338 156.796 191.841 167.365 204.443L168.897 203.157ZM153.531 158C153.531 135.525 159.674 117.1 171.895 102.646L170.368 101.354C157.788 116.233 151.531 135.142 151.531 158H153.531ZM171.895 102.646C184.105 88.2036 199.626 81 218.531 81V79C199.037 79 182.958 86.463 170.368 101.354L171.895 102.646ZM246.531 155C246.531 138.056 243.758 125.174 238.067 116.501C232.329 107.755 223.696 103.4 212.331 103.4V105.4C223.1 105.4 231.067 109.478 236.395 117.599C241.772 125.793 244.531 138.211 244.531 155H246.531ZM212.331 103.4C201.908 103.4 193.608 107.328 187.54 115.189L189.123 116.411C194.788 109.072 202.488 105.4 212.331 105.4V103.4ZM187.538 115.191C181.611 122.91 178.731 134.436 178.731 149.6H180.731C180.731 134.631 183.585 123.624 189.124 116.409L187.538 115.191ZM178.731 149.6C178.731 164.667 181.825 177.199 188.085 187.133L189.777 186.067C183.77 176.534 180.731 164.4 180.731 149.6H178.731ZM188.094 187.147C194.532 197.009 203.369 202 214.531 202V200C204.093 200 195.864 195.391 189.769 186.053L188.094 187.147ZM214.531 202C218.669 202 222.546 201.171 226.15 199.508L225.312 197.692C221.983 199.229 218.394 200 214.531 200V202ZM226.546 198.02L202.746 164.62L201.117 165.78L224.917 199.18L226.546 198.02ZM202.502 166.021L216.302 156.421L215.16 154.779L201.36 164.379L202.502 166.021ZM214.965 156.243L238.965 184.843L240.497 183.557L216.497 154.957L214.965 156.243ZM240.634 184.629C244.579 176.332 246.531 166.445 246.531 155H244.531C244.531 166.222 242.617 175.801 238.828 183.771L240.634 184.629Z" fill="white" mask="url(#path-2-outside-1_87_1120)"/>
</svg>
