<svg width="40px" height="20px" viewBox="0 0 429 309" fill="none" xmlns="http://www.w3.org/2000/svg">
<path d="M154.5 5H274.5C357.067 5 424 71.9334 424 154.5C424 237.067 357.067 304 274.5 304H154.5C71.9334 304 5 237.067 5 154.5C5 71.9334 71.9334 5 154.5 5Z" fill="white" stroke="white" stroke-width="10"/>
<mask id="path-2-outside-1_87_1105" maskUnits="userSpaceOnUse" x="86" y="79" width="250" height="169" fill="black">
<rect fill="white" x="86" y="79" width="250" height="169"/>
<path d="M153.395 80C169.128 80 182.061 86 192.195 98C202.461 110 207.595 125.267 207.595 143.8C207.595 165.4 200.928 184.067 187.595 199.8L213.995 231.2L194.195 245.8L171.195 213.8C161.861 219.4 151.995 222.2 141.595 222.2C126.261 222.2 113.395 216.067 102.995 203.8C92.5945 191.4 87.3945 176.133 87.3945 158C87.3945 135.333 93.5945 116.667 105.995 102C118.395 87.3333 134.195 80 153.395 80ZM180.395 155C180.395 121.267 169.328 104.4 147.195 104.4C137.061 104.4 129.061 108.2 123.195 115.8C117.461 123.267 114.595 134.533 114.595 149.6C114.595 164.533 117.661 176.867 123.795 186.6C130.061 196.2 138.595 201 149.395 201C153.395 201 157.128 200.2 160.595 198.6L136.795 165.2L150.595 155.6L174.595 184.2C178.461 176.067 180.395 166.333 180.395 155ZM275.532 222.2C263.532 222.2 253.399 218.533 245.132 211.2C236.999 203.867 232.932 194.8 232.932 184L230.932 86L259.732 81L256.532 168.6C256.532 177.933 258.665 185.2 262.932 190.4C267.332 195.6 274.065 198.2 283.132 198.2C292.199 198.2 298.732 195.667 302.732 190.6C306.732 185.533 308.732 176.8 308.732 164.4L306.332 86L334.332 81L332.132 169C332.132 184.733 326.865 197.533 316.332 207.4C305.799 217.267 292.199 222.2 275.532 222.2Z"/>
</mask>
<path d="M153.395 80C169.128 80 182.061 86 192.195 98C202.461 110 207.595 125.267 207.595 143.8C207.595 165.4 200.928 184.067 187.595 199.8L213.995 231.2L194.195 245.8L171.195 213.8C161.861 219.4 151.995 222.2 141.595 222.2C126.261 222.2 113.395 216.067 102.995 203.8C92.5945 191.4 87.3945 176.133 87.3945 158C87.3945 135.333 93.5945 116.667 105.995 102C118.395 87.3333 134.195 80 153.395 80ZM180.395 155C180.395 121.267 169.328 104.4 147.195 104.4C137.061 104.4 129.061 108.2 123.195 115.8C117.461 123.267 114.595 134.533 114.595 149.6C114.595 164.533 117.661 176.867 123.795 186.6C130.061 196.2 138.595 201 149.395 201C153.395 201 157.128 200.2 160.595 198.6L136.795 165.2L150.595 155.6L174.595 184.2C178.461 176.067 180.395 166.333 180.395 155ZM275.532 222.2C263.532 222.2 253.399 218.533 245.132 211.2C236.999 203.867 232.932 194.8 232.932 184L230.932 86L259.732 81L256.532 168.6C256.532 177.933 258.665 185.2 262.932 190.4C267.332 195.6 274.065 198.2 283.132 198.2C292.199 198.2 298.732 195.667 302.732 190.6C306.732 185.533 308.732 176.8 308.732 164.4L306.332 86L334.332 81L332.132 169C332.132 184.733 326.865 197.533 316.332 207.4C305.799 217.267 292.199 222.2 275.532 222.2Z" fill="black"/>
<path d="M192.195 98L191.43 98.6452L191.435 98.6501L192.195 98ZM187.595 199.8L186.832 199.153L186.286 199.797L186.829 200.444L187.595 199.8ZM213.995 231.2L214.588 232.005L215.446 231.372L214.76 230.556L213.995 231.2ZM194.195 245.8L193.383 246.384L193.973 247.206L194.788 246.605L194.195 245.8ZM171.195 213.8L172.007 213.216L171.469 212.469L170.68 212.943L171.195 213.8ZM102.995 203.8L102.228 204.443L102.232 204.447L102.995 203.8ZM123.195 115.8L122.403 115.189L122.401 115.191L123.195 115.8ZM123.795 186.6L122.948 187.133L122.953 187.14L122.957 187.147L123.795 186.6ZM160.595 198.6L161.014 199.508L162.109 199.002L161.409 198.02L160.595 198.6ZM136.795 165.2L136.223 164.379L135.393 164.957L135.98 165.78L136.795 165.2ZM150.595 155.6L151.361 154.957L150.773 154.257L150.023 154.779L150.595 155.6ZM174.595 184.2L173.829 184.843L174.829 186.035L175.498 184.629L174.595 184.2ZM153.395 81C168.834 81 181.488 86.8706 191.431 98.6452L192.959 97.3548C182.635 85.1294 169.422 79 153.395 79V81ZM191.435 98.6501C201.52 110.438 206.595 125.461 206.595 143.8H208.595C208.595 125.072 203.402 109.562 192.954 97.3499L191.435 98.6501ZM206.595 143.8C206.595 165.175 200.004 183.61 186.832 199.153L188.357 200.447C201.852 184.523 208.595 165.625 208.595 143.8H206.595ZM186.829 200.444L213.229 231.844L214.76 230.556L188.36 199.156L186.829 200.444ZM213.401 230.395L193.601 244.995L194.788 246.605L214.588 232.005L213.401 230.395ZM195.007 245.216L172.007 213.216L170.383 214.384L193.383 246.384L195.007 245.216ZM170.68 212.943C161.495 218.454 151.805 221.2 141.595 221.2V223.2C152.184 223.2 162.228 220.346 171.709 214.657L170.68 212.943ZM141.595 221.2C126.571 221.2 113.978 215.208 103.757 203.153L102.232 204.447C112.811 216.925 125.951 223.2 141.595 223.2V221.2ZM103.761 203.157C93.5301 190.959 88.3945 175.928 88.3945 158H86.3945C86.3945 176.338 91.659 191.841 102.228 204.443L103.761 203.157ZM88.3945 158C88.3945 135.525 94.5374 117.1 106.758 102.646L105.231 101.354C92.6517 116.233 86.3945 135.142 86.3945 158H88.3945ZM106.758 102.646C118.968 88.2036 134.489 81 153.395 81V79C133.9 79 117.821 86.463 105.231 101.354L106.758 102.646ZM181.395 155C181.395 138.056 178.621 125.174 172.931 116.501C167.192 107.755 158.559 103.4 147.195 103.4V105.4C157.963 105.4 165.93 109.478 171.258 117.599C176.635 125.793 179.395 138.211 179.395 155H181.395ZM147.195 103.4C136.771 103.4 128.471 107.328 122.403 115.189L123.986 116.411C129.652 109.072 137.351 105.4 147.195 105.4V103.4ZM122.401 115.191C116.475 122.91 113.595 134.436 113.595 149.6H115.595C115.595 134.631 118.448 123.624 123.988 116.409L122.401 115.191ZM113.595 149.6C113.595 164.667 116.689 177.199 122.948 187.133L124.641 186.067C118.634 176.534 115.595 164.4 115.595 149.6H113.595ZM122.957 187.147C129.395 197.009 138.233 202 149.395 202V200C138.956 200 130.728 195.391 124.632 186.053L122.957 187.147ZM149.395 202C153.532 202 157.409 201.171 161.014 199.508L160.175 197.692C156.846 199.229 153.257 200 149.395 200V202ZM161.409 198.02L137.609 164.62L135.98 165.78L159.78 199.18L161.409 198.02ZM137.366 166.021L151.166 156.421L150.023 154.779L136.223 164.379L137.366 166.021ZM149.829 156.243L173.829 184.843L175.361 183.557L151.361 154.957L149.829 156.243ZM175.498 184.629C179.442 176.332 181.395 166.445 181.395 155H179.395C179.395 166.222 177.48 175.801 173.691 183.771L175.498 184.629ZM245.132 211.2L244.462 211.943L244.468 211.948L245.132 211.2ZM232.932 184H233.932V183.99L233.932 183.98L232.932 184ZM230.932 86L230.761 85.0147L229.915 85.1617L229.932 86.0204L230.932 86ZM259.732 81L260.731 81.0365L260.776 79.8037L259.561 80.0147L259.732 81ZM256.532 168.6L255.533 168.563L255.532 168.582V168.6H256.532ZM262.932 190.4L262.159 191.034L262.164 191.04L262.169 191.046L262.932 190.4ZM302.732 190.6L303.517 191.22L303.517 191.22L302.732 190.6ZM308.732 164.4H309.732V164.385L309.732 164.369L308.732 164.4ZM306.332 86L306.156 85.0156L305.306 85.1674L305.333 86.0306L306.332 86ZM334.332 81L335.332 81.025L335.362 79.8002L334.156 80.0156L334.332 81ZM332.132 169L331.132 168.975L331.132 168.987V169H332.132ZM316.332 207.4L317.016 208.13L317.016 208.13L316.332 207.4ZM275.532 221.2C263.754 221.2 253.863 217.608 245.796 210.452L244.468 211.948C252.934 219.458 263.31 223.2 275.532 223.2V221.2ZM245.802 210.457C237.875 203.311 233.932 194.512 233.932 184H231.932C231.932 195.088 236.122 204.423 244.462 211.943L245.802 210.457ZM233.932 183.98L231.932 85.9796L229.932 86.0204L231.932 184.02L233.932 183.98ZM231.103 86.9853L259.903 81.9853L259.561 80.0147L230.761 85.0147L231.103 86.9853ZM258.733 80.9635L255.533 168.563L257.531 168.637L260.731 81.0365L258.733 80.9635ZM255.532 168.6C255.532 178.076 257.698 185.597 262.159 191.034L263.705 189.766C259.633 184.803 257.532 177.791 257.532 168.6H255.532ZM262.169 191.046C266.817 196.539 273.875 199.2 283.132 199.2V197.2C274.256 197.2 267.847 194.661 263.695 189.754L262.169 191.046ZM283.132 199.2C292.374 199.2 299.259 196.613 303.517 191.22L301.947 189.98C298.205 194.72 292.023 197.2 283.132 197.2V199.2ZM303.517 191.22C307.736 185.875 309.732 176.847 309.732 164.4H307.732C307.732 176.753 305.728 185.192 301.947 189.98L303.517 191.22ZM309.732 164.369L307.332 85.9694L305.333 86.0306L307.733 164.431L309.732 164.369ZM306.508 86.9844L334.508 81.9844L334.156 80.0156L306.156 85.0156L306.508 86.9844ZM333.332 80.975L331.132 168.975L333.132 169.025L335.332 81.025L333.332 80.975ZM331.132 169C331.132 184.485 325.961 197.011 315.648 206.67L317.016 208.13C327.77 198.056 333.132 184.982 333.132 169H331.132ZM315.648 206.67C305.329 216.336 291.987 221.2 275.532 221.2V223.2C292.41 223.2 306.268 218.197 317.016 208.13L315.648 206.67Z" fill="white" mask="url(#path-2-outside-1_87_1105)"/>
</svg>
