<svg width="40px" height="20px" viewBox="0 0 429 309" fill="none" xmlns="http://www.w3.org/2000/svg">
<path d="M154.5 5H274.5C357.067 5 424 71.9334 424 154.5C424 237.067 357.067 304 274.5 304H154.5C71.9334 304 5 237.067 5 154.5C5 71.9334 71.9334 5 154.5 5Z" fill="white" stroke="white" stroke-width="10"/>
<mask id="path-2-outside-1_87_1108" maskUnits="userSpaceOnUse" x="122" y="81" width="194" height="143" fill="black">
<rect fill="white" x="122" y="81" width="194" height="143"/>
<path d="M159.171 166.8H147.771V168L150.171 220H123.371L125.771 171.4L123.371 82H166.771C179.571 82 189.771 85.4667 197.371 92.4C204.971 99.3333 208.771 108.533 208.771 120C208.771 128.667 206.504 136.6 201.971 143.8C197.571 150.867 191.571 156.467 183.971 160.6L218.771 209.8L194.571 222.2L163.371 166.6C162.438 166.733 161.038 166.8 159.171 166.8ZM159.571 102.2H149.771L148.371 147.4H161.971C168.638 147.4 173.771 145.2 177.371 140.8C181.104 136.4 182.971 130.133 182.971 122C182.971 108.8 175.171 102.2 159.571 102.2ZM239.191 220L241.591 171.4L239.191 82H314.191L311.991 103.4H266.991L265.791 138.8H305.791L303.591 160H264.991L264.791 168L266.191 198.8H314.591L312.391 220H239.191Z"/>
</mask>
<path d="M159.171 166.8H147.771V168L150.171 220H123.371L125.771 171.4L123.371 82H166.771C179.571 82 189.771 85.4667 197.371 92.4C204.971 99.3333 208.771 108.533 208.771 120C208.771 128.667 206.504 136.6 201.971 143.8C197.571 150.867 191.571 156.467 183.971 160.6L218.771 209.8L194.571 222.2L163.371 166.6C162.438 166.733 161.038 166.8 159.171 166.8ZM159.571 102.2H149.771L148.371 147.4H161.971C168.638 147.4 173.771 145.2 177.371 140.8C181.104 136.4 182.971 130.133 182.971 122C182.971 108.8 175.171 102.2 159.571 102.2ZM239.191 220L241.591 171.4L239.191 82H314.191L311.991 103.4H266.991L265.791 138.8H305.791L303.591 160H264.991L264.791 168L266.191 198.8H314.591L312.391 220H239.191Z" fill="black"/>
<path d="M147.771 166.8V165.8H146.771V166.8H147.771ZM147.771 168H146.771V168.023L146.772 168.046L147.771 168ZM150.171 220V221H151.218L151.17 219.954L150.171 220ZM123.371 220L122.372 219.951L122.32 221H123.371V220ZM125.771 171.4L126.77 171.449L126.772 171.411L126.771 171.373L125.771 171.4ZM123.371 82V81H122.344L122.371 82.0268L123.371 82ZM197.371 92.4L196.697 93.1388L196.697 93.1388L197.371 92.4ZM201.971 143.8L201.125 143.267L201.122 143.271L201.971 143.8ZM183.971 160.6L183.493 159.722L182.505 160.259L183.155 161.177L183.971 160.6ZM218.771 209.8L219.227 210.69L220.253 210.164L219.588 209.223L218.771 209.8ZM194.571 222.2L193.699 222.689L194.17 223.529L195.027 223.09L194.571 222.2ZM163.371 166.6L164.243 166.111L163.908 165.513L163.23 165.61L163.371 166.6ZM149.771 102.2V101.2H148.802L148.772 102.169L149.771 102.2ZM148.371 147.4L147.372 147.369L147.34 148.4H148.371V147.4ZM177.371 140.8L176.609 140.153L176.603 140.16L176.597 140.167L177.371 140.8ZM159.171 165.8H147.771V167.8H159.171V165.8ZM146.771 166.8V168H148.771V166.8H146.771ZM146.772 168.046L149.172 220.046L151.17 219.954L148.77 167.954L146.772 168.046ZM150.171 219H123.371V221H150.171V219ZM124.37 220.049L126.77 171.449L124.772 171.351L122.372 219.951L124.37 220.049ZM126.771 171.373L124.371 81.9732L122.371 82.0268L124.771 171.427L126.771 171.373ZM123.371 83H166.771V81H123.371V83ZM166.771 83C179.385 83 189.323 86.4119 196.697 93.1388L198.045 91.6612C190.219 84.5214 179.757 81 166.771 81V83ZM196.697 93.1388C204.064 99.8598 207.771 108.779 207.771 120H209.771C209.771 108.288 205.878 98.8069 198.045 91.6612L196.697 93.1388ZM207.771 120C207.771 128.482 205.556 136.23 201.125 143.267L202.817 144.333C207.453 136.97 209.771 128.852 209.771 120H207.771ZM201.122 143.271C196.817 150.185 190.948 155.667 183.493 159.722L184.449 161.478C192.195 157.266 198.325 151.548 202.82 144.329L201.122 143.271ZM183.155 161.177L217.955 210.377L219.588 209.223L184.788 160.023L183.155 161.177ZM218.315 208.91L194.115 221.31L195.027 223.09L219.227 210.69L218.315 208.91ZM195.443 221.711L164.243 166.111L162.499 167.089L193.699 222.689L195.443 221.711ZM163.23 165.61C162.369 165.733 161.027 165.8 159.171 165.8V167.8C161.049 167.8 162.507 167.734 163.513 167.59L163.23 165.61ZM159.571 101.2H149.771V103.2H159.571V101.2ZM148.772 102.169L147.372 147.369L149.371 147.431L150.771 102.231L148.772 102.169ZM148.371 148.4H161.971V146.4H148.371V148.4ZM161.971 148.4C168.88 148.4 174.321 146.107 178.145 141.433L176.597 140.167C173.221 144.293 168.396 146.4 161.971 146.4V148.4ZM178.134 141.447C182.073 136.805 183.971 130.274 183.971 122H181.971C181.971 129.992 180.136 135.995 176.609 140.153L178.134 141.447ZM183.971 122C183.971 115.198 181.954 109.929 177.767 106.387C173.613 102.871 167.488 101.2 159.571 101.2V103.2C167.254 103.2 172.83 104.829 176.475 107.913C180.089 110.971 181.971 115.602 181.971 122H183.971ZM239.191 220L238.193 219.951L238.141 221H239.191V220ZM241.591 171.4L242.59 171.449L242.592 171.411L242.591 171.373L241.591 171.4ZM239.191 82V81H238.164L238.192 82.0268L239.191 82ZM314.191 82L315.186 82.1023L315.299 81H314.191V82ZM311.991 103.4V104.4H312.894L312.986 103.502L311.991 103.4ZM266.991 103.4V102.4H266.025L265.992 103.366L266.991 103.4ZM265.791 138.8L264.792 138.766L264.757 139.8H265.791V138.8ZM305.791 138.8L306.786 138.903L306.901 137.8H305.791V138.8ZM303.591 160V161H304.493L304.586 160.103L303.591 160ZM264.991 160V159H264.016L263.992 159.975L264.991 160ZM264.791 168L263.792 167.975L263.791 168.01L263.792 168.045L264.791 168ZM266.191 198.8L265.192 198.845L265.236 199.8H266.191V198.8ZM314.591 198.8L315.586 198.903L315.701 197.8H314.591V198.8ZM312.391 220V221H313.293L313.386 220.103L312.391 220ZM240.19 220.049L242.59 171.449L240.593 171.351L238.193 219.951L240.19 220.049ZM242.591 171.373L240.191 81.9732L238.192 82.0268L240.592 171.427L242.591 171.373ZM239.191 83H314.191V81H239.191V83ZM313.197 81.8977L310.997 103.298L312.986 103.502L315.186 82.1023L313.197 81.8977ZM311.991 102.4H266.991V104.4H311.991V102.4ZM265.992 103.366L264.792 138.766L266.791 138.834L267.991 103.434L265.992 103.366ZM265.791 139.8H305.791V137.8H265.791V139.8ZM304.797 138.697L302.597 159.897L304.586 160.103L306.786 138.903L304.797 138.697ZM303.591 159H264.991V161H303.591V159ZM263.992 159.975L263.792 167.975L265.791 168.025L265.991 160.025L263.992 159.975ZM263.792 168.045L265.192 198.845L267.19 198.755L265.79 167.955L263.792 168.045ZM266.191 199.8H314.591V197.8H266.191V199.8ZM313.597 198.697L311.397 219.897L313.386 220.103L315.586 198.903L313.597 198.697ZM312.391 219H239.191V221H312.391V219Z" fill="white" mask="url(#path-2-outside-1_87_1108)"/>
</svg>
